<svg width="386" height="252" viewBox="0 0 386 252" fill="none" xmlns="http://www.w3.org/2000/svg">
<path d="M2.83539 613.883C-36.7198 52.7338 347.374 -15.37 544.365 20.7218L590.055 41.8075L579.682 1214.11C403.881 1247.84 42.3906 1175.03 2.83539 613.883Z" fill="#BEE663"/>
<path d="M41.6879 683.829C2.13274 122.679 346.984 49.7347 543.975 85.8265V133.21L618.534 1284.05C442.733 1317.79 81.2431 1244.98 41.6879 683.829Z" fill="#043F2E"/>
<g opacity="0.04">
<mask id="mask0_297_62" style="mask-type:alpha" maskUnits="userSpaceOnUse" x="36" y="0" width="609" height="1288">
<path d="M39.9001 680.252C0.344917 119.103 354.584 50.6284 551.575 86.7202L645 0L616.746 1280.47C440.946 1314.21 79.4552 1241.4 39.9001 680.252Z" fill="#043F2E"/>
</mask>
<g mask="url(#mask0_297_62)">
<path d="M46.9314 450.247C47.2218 449.57 49.4482 447.44 52.0617 445.601C72.2924 430.888 81.5849 423.434 90.7807 414.142C100.654 404.268 110.043 392.556 114.883 384.231C117.497 379.585 116.529 378.714 104.332 374.455C86.328 368.163 74.4219 365.936 58.7407 365.84C48.577 365.743 47.8026 365.84 44.2211 368.453C36.2837 373.874 36.1869 371.648 43.5435 357.225C52.1585 340.188 61.8383 326.637 73.7443 315.118C84.0049 305.148 93.491 301.276 111.108 299.921C113.141 299.727 115.077 299.146 115.27 298.565C115.464 297.985 114.012 295.661 112.076 293.532C107.236 288.208 100.557 277.56 97.0725 270.01C94.3622 263.815 94.2654 263.718 89.6191 263.041C82.6497 262.073 71.2276 258.104 64.4518 254.426C55.8368 249.683 40.6396 238.261 32.5086 230.42L25.4424 223.644V202.252V180.86L29.7983 188.603C41.0268 208.253 58.7407 225.58 77.2291 234.873C84.3921 238.454 97.1693 242.616 98.1373 241.648C98.5245 241.261 101.912 234.873 105.591 227.613C113.335 212.222 122.24 200.606 122.24 205.737C122.24 206.317 120.401 210.576 118.174 215.126C111.205 229.742 109.463 240.971 113.819 245.036C115.851 246.876 117.11 247.166 125.337 247.166C132.5 247.166 135.695 246.682 139.179 245.23C144.794 242.81 145.471 242.81 145.471 245.133C145.471 247.456 139.663 252.199 130.274 257.717C126.499 259.943 123.111 262.46 122.821 263.331C122.046 265.17 130.177 275.528 136.179 280.367C138.502 282.303 144.987 287.24 150.505 291.402C169.187 305.341 180.802 319.086 186.223 333.8C188.062 338.64 188.449 341.64 188.449 352.191C188.449 367.098 187.385 371.841 180.802 386.07C174.317 400.3 160.185 415.69 156.022 413.077C155.538 412.786 155.151 410.947 155.151 408.915C155.151 406.011 154.377 404.268 151.279 400.784C147.407 396.428 135.211 388.006 129.209 385.586C125.434 384.134 127.661 382.102 109.463 403.01C93.1039 421.789 86.4248 427.693 67.4525 440.083C58.4503 445.988 48.7706 451.409 47.2218 451.409C46.8346 451.409 46.7378 450.828 46.9314 450.247ZM172.381 371.648C172.768 361.097 170.348 353.74 162.411 341.06C159.217 336.026 151.279 327.508 149.827 327.508C148.956 327.508 148.085 329.637 147.504 333.122C146.246 339.511 143.923 347.545 141.406 353.45C140.535 355.676 139.954 358.193 140.244 358.967C140.535 359.741 143.923 362.065 147.698 364.194C151.57 366.227 157.958 370.583 161.927 373.777C165.896 377.068 169.864 379.585 170.639 379.488C171.8 379.295 172.187 377.552 172.381 371.648ZM127.08 348.707C127.08 343.383 124.176 334.961 120.982 331.283C114.496 323.636 102.106 320.442 89.3287 323.055C76.6483 325.669 65.4198 332.445 59.2247 341.253C57.4824 343.673 57.3856 344.06 58.8375 344.544C59.7087 344.931 62.1286 344.738 64.0646 344.06C74.0347 341.156 92.1359 343.576 114.98 351.126C120.304 352.869 125.241 354.127 125.918 353.837C126.596 353.643 127.08 351.61 127.08 348.707Z" fill="white"/>
<path d="M452.61 356.353C452.9 355.095 454.255 351.126 455.611 347.545C458.418 340.188 459.095 327.605 456.966 321.603C456.385 319.764 452.126 313.666 447.576 308.051C443.027 302.437 437.219 294.887 434.702 291.402C432.089 287.821 429.669 284.917 429.185 284.917C428.701 284.917 426.184 286.562 423.571 288.595C403.727 304.18 384.561 310.762 356.296 311.73C326.87 312.795 315.157 308.535 294.636 289.273C288.344 283.368 284.763 278.335 282.44 271.849C281.375 269.236 280.213 266.719 279.729 266.429C279.245 266.041 276.632 266.719 273.922 267.687C263.661 271.656 256.111 274.463 249.045 276.786C239.559 279.98 229.008 283.852 225.329 285.401C223.781 286.078 219.134 287.627 215.166 288.789C206.454 291.306 204.711 292.661 206.163 295.855C206.744 297.017 211.487 303.696 216.618 310.568C221.845 317.538 226.878 324.894 227.846 327.024C232.299 336.704 228.524 345.125 215.843 353.837C211.778 356.644 209.842 357.418 209.067 356.644C208.39 355.966 208.486 355.095 209.551 353.934C212.068 351.03 213.52 345.512 212.842 341.737C212.455 339.801 210.229 335.736 207.906 332.638C205.583 329.541 200.936 323.539 197.742 319.28C191.741 311.439 189.998 308.439 187.191 300.404L185.642 296.049L177.898 295.468C164.54 294.403 156.603 290.434 152.634 282.787C149.537 276.883 152.15 265.267 159.023 254.135C163.088 247.456 164.831 247.553 164.831 254.232C164.831 263.912 171.413 270.591 184.481 273.979C191.063 275.721 191.45 275.528 196.484 267.493C201.323 260.04 215.843 245.52 217.295 246.972C217.973 247.65 217.585 248.908 215.843 251.231C213.133 254.91 205.486 270.3 205.486 272.236C205.486 273.204 206.551 273.398 210.132 272.914C218.166 271.752 246.141 262.944 259.596 257.426C266.759 254.426 273.05 252.006 273.534 252.006C274.018 252.006 275.664 251.135 277.213 249.973C279.826 248.134 280.02 247.65 280.02 241.068C280.02 219.869 289.022 195.863 304.413 176.02C318.545 157.822 323.772 152.207 336.646 140.882C343.616 134.784 349.424 129.363 349.617 128.782C350.295 126.943 319.997 130.912 316.706 133.138C315.448 134.01 307.414 141.366 298.992 149.497C290.474 157.628 283.408 163.823 283.214 163.242C282.924 162.565 285.731 159.08 289.312 155.499C297.056 147.561 310.995 132.17 310.995 131.493C310.995 130.428 303.638 128.105 292.604 125.685C278.471 122.587 261.628 122.2 249.819 124.62C241.107 126.459 240.139 126.75 226.975 133.138C219.812 136.623 216.618 137.688 215.94 137.01C213.423 134.494 226.684 122.587 238.01 117.07C249.141 111.649 257.176 109.713 269.275 109.713C275.47 109.713 284.182 110.294 288.732 111.069C293.281 111.843 300.444 112.908 304.703 113.488C308.962 113.972 314.286 114.747 316.416 114.94C321.643 115.715 324.256 113.585 329.58 104.583C335.291 94.9034 337.711 89.6763 339.647 82.9973C341.873 75.4471 345.745 55.2164 345.165 54.3452C344.487 53.0868 335.098 53.474 328.515 55.0228C321.643 56.6683 313.609 60.3466 310.317 63.4442C309.156 64.5089 307.801 65.0897 307.22 64.7993C305.284 63.541 310.027 56.1844 317.19 49.2149C326.192 40.4064 331.516 37.5024 342.454 35.5665C346.81 34.7921 347.101 34.0177 346.133 27.0483L345.261 20.6597H355.135H365.105L365.395 27.6291L365.686 34.6953L373.913 34.5985C383.593 34.4049 399.662 31.3074 405.857 28.3067C408.277 27.1451 411.761 24.9188 413.697 23.4668C415.633 21.918 418.247 20.6597 419.505 20.6597C421.538 20.6597 421.151 21.2405 416.504 26.0803C402.662 40.2128 386.4 49.5053 372.462 51.1509C363.266 52.3125 362.588 52.7964 360.846 59.0883C356.78 73.7047 352.134 83.0941 340.325 100.711C332.968 111.553 331.226 114.844 332.194 115.812C333.839 117.457 356.587 117.36 362.782 115.618C368.686 113.972 379.334 108.842 385.239 104.777C389.885 101.486 392.402 101.97 390.466 105.648C388.53 109.326 377.301 118.619 364.234 127.427C341.97 142.528 326.192 156.951 313.899 173.6C299.283 193.346 293.862 211.544 296.379 232.453C297.056 238.164 298.121 243.391 298.605 244.068C299.283 244.843 302.67 245.23 308.962 245.23C318.642 245.23 336.743 247.263 343.229 249.102C349.23 250.844 360.362 256.942 362.104 259.459C367.041 266.429 366.557 266.235 369.461 262.363C370.913 260.427 372.365 257.136 372.655 255.103C373.042 251.909 372.752 250.844 370.138 247.843C368.493 246.004 365.008 243.197 362.491 241.552C359.975 240.003 353.489 236.034 347.972 232.646C336.55 225.58 331.226 220.256 327.741 212.512C325.515 207.672 325.224 205.64 325.128 196.347C325.031 184.054 326.095 180.472 332.775 171.18C338.97 162.565 357.071 145.528 360.071 145.528C360.943 145.528 361.136 146.69 360.749 149.884C360.168 154.047 360.168 154.24 365.395 159.371C368.299 162.178 374.785 167.598 379.818 171.277C391.143 179.795 399.662 188.797 403.437 196.347C405.953 201.381 406.341 203.22 406.341 209.899C406.341 218.223 406.825 216.771 397.822 234.098C396.467 236.809 394.628 240.777 393.66 243.004C390.659 250.457 358.91 279.496 350.876 282.11C347.004 283.368 346.036 282.691 342.745 276.205C339.066 269.042 337.034 268.171 322.127 267.106C305.865 265.945 304.8 266.525 310.995 272.914C321.546 283.755 331.807 289.37 348.843 293.725C360.168 296.533 361.523 296.726 373.429 296.145C386.691 295.565 392.402 294.5 403.437 290.338C409.341 288.111 423.28 279.787 423.28 278.431C423.28 278.238 421.635 274.656 419.699 270.591C413.6 257.91 414.859 249.005 426.184 227.322C434.702 210.964 443.995 197.799 447.189 197.799C449.416 197.799 448.544 200.509 444.189 206.704C435.283 219.579 434.509 221.611 434.702 230.42C434.799 234.679 435.477 240.777 436.348 243.778C438.187 251.135 442.446 259.943 443.898 259.556C444.576 259.362 448.544 254.522 452.803 248.908C462.193 236.421 465.968 232.356 467.129 233.517C468.291 234.679 464.322 242.229 455.611 255.49C451.642 261.492 448.448 266.719 448.448 267.106C448.448 267.493 452.126 273.301 456.579 279.98C471.195 301.76 474.293 309.503 473.228 320.635C472.55 327.314 473.131 328.96 475.745 327.992C477.487 327.314 482.52 319.667 486.392 312.02C495.394 293.822 502.461 287.24 520.562 280.077C531.79 275.624 539.824 275.334 552.989 278.819L563.153 281.529L563.443 293.435C563.54 299.92 563.443 305.244 563.249 305.244C562.959 305.244 559.862 304.18 556.183 303.018C534.113 295.371 529.951 294.693 520.175 296.726C509.624 298.856 502.364 302.728 494.426 310.278C486.199 318.022 486.489 319.377 495.975 317.925C510.011 315.602 516.69 316.57 538.953 324.217C545.923 326.54 554.15 329.057 557.345 329.734L563.153 331.089L563.443 342.027L563.733 352.966L554.247 352.385C544.858 351.707 534.21 349.287 528.983 346.577C511.656 337.575 509.236 336.994 489.199 336.994L473.325 337.091L469.937 340.285C468.098 342.027 465.097 345.899 463.161 348.803C458.611 355.966 456.191 358.483 453.965 358.483C452.513 358.483 452.223 357.999 452.61 356.353ZM386.497 223.063C386.497 214.061 379.915 204.962 366.363 195.282C360.652 191.12 353.683 185.893 350.972 183.473C344.681 178.246 342.454 178.44 343.422 184.247C344.971 193.346 352.618 204.575 361.911 211.448C367.331 215.416 384.561 225.87 385.82 225.87C386.207 225.87 386.497 224.612 386.497 223.063Z" fill="white"/>
<path d="M184.578 247.65C184.19 246.875 184.481 244.262 185.062 241.842C186.61 235.647 186.417 231.388 184.094 225.677C179.157 212.996 169.187 201.187 156.603 193.056C148.279 187.732 130.274 178.44 128.145 178.44C127.37 178.44 122.337 181.343 117.013 185.022C111.689 188.603 104.139 193.056 100.267 194.895C94.3624 197.799 92.5232 199.348 88.0705 205.059C82.3595 212.609 75.2933 217.546 74.2285 214.835C73.9381 213.964 74.3253 212.125 75.1965 210.77C76.2612 209.221 76.842 206.124 76.9388 201.865C77.0356 193.637 74.2285 187.539 64.0648 174.664C60.0961 169.728 54.9658 163.242 52.5459 160.145C40.059 144.173 38.607 130.234 47.6092 111.165C54.1914 96.936 71.2278 79.1253 76.358 81.0612C77.5196 81.5452 76.7452 82.9972 72.3893 88.1275C69.4854 91.8058 65.8071 97.1296 64.3552 100.034C62.032 104.777 61.7416 106.422 61.7416 115.521C61.8384 124.814 62.032 126.169 64.5487 131.009C68.3238 138.269 73.8413 146.303 81.9723 156.66C85.8442 161.5 90.2969 167.598 92.0392 170.309C94.9432 174.858 95.1368 175.826 95.1368 183.57C95.1368 189.862 95.4272 191.991 96.3951 191.991C97.0727 191.991 102.203 188.507 107.817 184.151C113.335 179.892 118.465 176.116 119.143 175.826C121.078 175.052 120.498 172.051 118.175 170.405C116.916 169.631 114.399 166.437 112.56 163.339C109.463 158.209 109.172 157.047 109.172 150.368C109.269 144.657 109.753 141.947 111.689 137.785C116.335 127.814 132.597 110.004 135.017 112.424C135.695 113.101 135.405 114.263 133.953 116.296C130.274 121.426 127.08 129.46 127.08 133.429C127.08 138.656 131.242 146.496 136.856 151.82C141.89 156.563 142.664 156.854 145.181 154.821C156.022 146.012 166.186 137.107 166.477 136.139C166.67 135.558 165.025 133.429 162.798 131.299C153.022 122.297 150.408 108.745 156.022 96.8392C160.959 86.5787 172.575 73.8982 177.124 73.8982C178.867 73.8982 178.77 74.5758 176.447 77.7701C170.542 85.9979 169.187 95.1937 172.575 102.647C174.608 107.293 182.835 116.489 184.771 116.489C188.934 116.489 203.55 89.0954 207.035 74.8662C208.68 68.1872 208.68 68.5744 206.841 66.7352C205.873 65.6704 203.55 65.1865 200.065 65.1865C190.676 65.1865 173.349 62.1857 167.928 59.669C162.024 56.8619 158.83 53.0868 156.603 46.0205C154.57 40.0191 155.054 30.1458 157.474 24.3379L159.023 20.6596H166.864C173.833 20.6596 174.511 20.8532 173.736 22.3052C171.897 25.4027 175.769 33.9209 180.512 37.3088C185.255 40.7935 187.966 41.8583 194.354 42.8262C202.776 44.0846 205.389 42.6326 203.066 38.0831C200.356 32.8561 190.289 26.0803 179.351 22.0148C176.447 20.95 179.06 20.7564 199.484 20.7564C212.359 20.6596 222.909 20.7564 222.909 20.95C222.909 21.0468 223.781 23.5635 224.845 26.4674C226.007 29.3714 227.072 34.5984 227.459 37.9863C228.04 43.7942 228.233 44.1814 231.234 45.4398C232.976 46.2141 235.59 46.7949 236.945 46.7949C241.204 46.7949 257.563 52.2156 268.308 57.1523C278.665 61.9921 279.536 61.121 272.567 53.0868C266.952 46.5045 262.016 41.955 247.593 29.8554C235.396 19.498 234.041 20.6596 258.531 20.6596H280.02L284.376 24.6283C289.797 29.6618 296.766 39.9223 298.799 46.2141C304.413 62.6697 299.67 80.3837 286.312 93.1609C282.634 96.7424 279.342 99.0656 278.374 98.872C277.503 98.6784 275.761 96.6457 274.503 94.2257C268.695 83.1908 253.207 72.4463 237.623 68.5744C226.104 65.7672 226.781 65.3801 216.134 83.578C206.26 100.614 197.549 113.585 193.483 117.36C192.128 118.715 190.966 120.167 190.966 120.651C190.966 121.135 195.516 125.975 201.033 131.396C211.584 141.753 216.424 148.82 220.199 159.37C223.297 168.179 223.297 185.99 220.102 194.895C217.102 203.413 213.714 210.383 209.939 215.9C208.196 218.514 204.905 224.418 202.582 229.065C198.033 238.26 192.418 245.423 187.966 247.747C185.449 249.005 185.062 249.005 184.578 247.65ZM205.583 202.445C206.454 200.316 206.938 195.379 206.938 188.119C206.938 177.568 206.744 176.697 203.744 170.502C198.904 160.532 178.963 140.689 173.833 140.689C171.413 140.689 150.311 157.918 150.311 159.854C150.311 161.21 157.087 165.662 168.219 171.567C177.221 176.407 186.514 182.892 190.095 186.764C193.483 190.442 199.678 200.219 199.678 201.961C199.678 203.51 201.614 205.543 203.163 205.543C203.744 205.543 204.905 204.091 205.583 202.445Z" fill="white"/>
<path d="M240.527 244.068C239.849 243.391 239.365 240.39 239.365 237.389C239.365 231.485 237.332 224.612 234.816 221.805C232.202 218.901 226.297 217.739 222.716 219.482C218.166 221.805 216.811 221.514 217.586 218.417C218.941 212.899 224.265 203.51 227.846 200.219C232.396 196.153 235.493 195.282 239.462 196.831C243.043 198.38 248.948 204.962 251.465 210.286C253.885 215.319 256.208 215.223 259.112 209.899C265.21 198.38 277.406 180.375 279.052 180.375C280.794 180.375 280.02 182.408 273.341 195.669C264.339 213.674 249.045 238.841 244.495 243.1C241.785 245.617 241.979 245.52 240.527 244.068Z" fill="white"/>
<path d="M134.824 218.223C125.531 211.351 124.466 209.996 126.209 206.801C126.983 205.446 130.274 201.381 133.565 197.896L139.567 191.507L146.827 195.282C150.892 197.412 155.248 200.316 156.7 201.768C159.12 204.285 159.12 204.478 157.668 207.382C155.442 211.641 144.6 222.967 142.664 222.967C141.793 222.87 138.308 220.837 134.824 218.223Z" fill="white"/>
<path d="M244.592 169.825C241.494 167.792 237.622 164.791 236.074 163.146L233.267 160.145L235.783 155.983C238.978 150.659 246.431 142.625 248.173 142.625C250.497 142.625 264.532 151.433 266.178 153.853C267.533 155.983 267.436 156.37 264.145 160.822C260.564 165.856 252.529 173.6 251.174 173.6C250.69 173.6 247.786 171.954 244.592 169.825Z" fill="white"/>
<path d="M384.755 168.469C385.045 167.308 391.918 161.016 408.277 146.98C431.218 127.234 449.319 106.519 454.643 93.7417C455.901 90.7409 455.901 90.2569 454.449 88.4178C450.867 84.1587 428.991 78.738 415.149 78.738C406.534 78.738 395.886 81.4484 389.691 85.1267C381.851 89.8698 379.721 90.6441 379.044 88.805C377.979 86.0947 389.982 65.0896 399.855 52.2155C406.437 43.6973 419.021 31.404 427.152 25.693L434.315 20.6595H460.257C488.618 20.6595 487.747 20.5627 496.265 26.5642C508.462 35.3727 518.819 48.7308 522.982 61.1209C527.337 74.1886 529.273 99.1623 526.466 104.68C524.53 108.455 511.85 120.361 509.817 120.361C508.946 120.361 506.139 118.328 503.719 115.715C493.652 105.357 475.551 93.2577 470.033 93.2577C468.775 93.2577 466.355 95.484 463.354 99.2591C449.803 116.489 434.218 133.041 416.02 149.303C401.21 162.565 398.984 164.21 391.434 167.211C384.174 170.115 384.368 170.115 384.755 168.469ZM505.074 82.6099C505.848 81.3516 503.041 72.7366 500.428 68.1871C495.588 59.7657 485.134 49.6988 481.359 49.6988C480.003 49.6988 479.52 51.0539 478.939 56.765C477.584 70.4135 477.003 69.0583 485.715 73.4142C489.974 75.5437 494.814 78.1573 496.362 79.222C503.235 83.7715 504.106 84.1587 505.074 82.6099ZM431.024 60.0561C439.542 60.0561 444.963 60.5401 449.319 61.7017C456.094 63.5408 458.127 63.2504 458.127 60.5401C458.127 54.6355 449.706 44.0845 442.252 40.5998C437.413 38.2767 427.733 38.8575 420.86 41.8582C410.116 46.6013 396.08 62.7664 401.21 64.412C401.888 64.7024 406.05 63.7344 410.696 62.4761C417.279 60.6369 421.247 60.1529 431.024 60.0561Z" fill="white"/>
<path d="M98.0405 106.616C98.0405 105.938 99.3957 103.809 101.041 101.97C102.59 100.13 106.172 96.0649 108.785 93.0642C116.335 84.3524 120.304 78.9318 125.821 69.5424C132.984 57.3459 138.599 40.6 140.147 26.7579L140.825 20.6597H145.375H150.021L147.891 29.1779C141.115 56.2812 128.532 79.0286 109.172 98.8721C100.944 107.293 98.0405 109.326 98.0405 106.616Z" fill="white"/>
<path d="M35.9933 94.9035C26.12 87.9341 25.4424 87.1597 25.4424 84.0622C25.4424 80.0935 35.9933 68.0906 39.478 68.0906C43.5435 68.0906 58.3535 77.6735 58.3535 80.2871C58.3535 82.4166 44.4147 97.6138 42.2852 97.8074C41.3172 98.001 38.4132 96.6458 35.9933 94.9035Z" fill="white"/>
<path d="M73.4539 69.5425C70.2595 64.2187 67.162 61.7987 54.9655 55.5069C35.7996 45.6335 32.0245 41.1809 31.8309 28.4036L31.7341 21.1438L41.0267 20.8534L50.4161 20.563L53.2232 23.9509C56.6111 28.1132 61.6446 31.7915 70.4531 36.6314C79.5521 41.568 86.4247 46.2143 89.3287 49.2151C90.6838 50.667 92.6198 51.635 94.2653 51.635C100.654 51.635 104.719 31.5979 99.9764 23.8541L98.0404 20.6598H108.688C117.013 20.6598 119.336 20.9502 119.336 22.015C119.336 24.0477 111.882 37.7929 106.655 45.3432C96.6853 59.766 82.3592 73.8984 77.6162 73.8984C76.6482 73.8984 74.9058 72.0593 73.4539 69.5425Z" fill="white"/>
<path d="M305.865 31.5978C305.478 31.3074 305.187 30.049 305.187 28.8875C305.187 26.5643 303.348 24.6284 298.895 22.3052C296.088 20.7565 296.572 20.7565 309.349 20.6597H322.708L320.965 23.6604C317.868 28.8875 308.188 34.0177 305.865 31.5978Z" fill="white"/>
</g>
</g>
</svg>
