<svg width="598" height="982" viewBox="0 0 598 982" fill="none" xmlns="http://www.w3.org/2000/svg">
<path d="M3.1715 627.889C-41.0725 0.221436 388.551 -75.9553 608.893 -35.5852L660 -12L648.397 1299.26C451.757 1337 47.4155 1255.56 3.1715 627.889Z" fill="#BEE663"/>
<path d="M47.1715 760.889C2.92743 133.221 388.658 51.63 609 92.0001V145L692.397 1432.26C495.757 1470 91.4155 1388.56 47.1715 760.889Z" fill="#043F2E"/>
<g opacity="0.04">
<mask id="mask0_143_174" style="mask-type:alpha" maskUnits="userSpaceOnUse" x="41" y="-4" width="681" height="1440">
<path d="M45.1715 756.889C0.927467 129.221 397.158 52.6299 617.5 93L722 -4L690.397 1428.26C493.757 1466 89.4155 1384.56 45.1715 756.889Z" fill="#043F2E"/>
</mask>
<g mask="url(#mask0_143_174)">
<path d="M33.3309 640.589C33.3309 637.016 44.3746 619.259 56.5011 603.235C60.1823 598.471 71.6591 584.071 82.1615 571.295C92.5556 558.519 102.192 546.609 103.491 544.768L105.873 541.52L103.491 532.858C101.759 526.362 101.109 521.165 101.109 511.745C101.109 498.753 102.733 492.581 109.338 479.805C117.458 464.106 131.317 445.591 137.38 442.343C141.495 440.178 140.737 444.4 135.431 453.495C127.744 466.488 125.254 472.335 123.413 481.429C121.356 491.282 122.547 504.491 125.47 505.033C126.336 505.141 127.636 504.383 128.177 503.192C129.476 500.269 139.546 486.41 147.666 476.232C155.462 466.488 163.907 458.367 165.423 459.234C166.722 459.992 164.556 463.998 153.296 481.971C140.845 502.109 132.833 516.943 132.724 520.299C132.616 524.63 138.355 534.807 146.258 544.227C164.448 565.99 168.887 575.626 168.996 593.491C169.104 603.777 168.887 604.751 165.206 612.438C161.092 620.884 151.239 633.01 148.532 633.01C147.558 633.01 145.717 631.602 144.31 629.87C138.246 622.724 121.248 618.935 94.5045 618.935C67.22 618.935 55.8514 622.399 43.1836 634.634C36.2542 641.239 33.3309 643.079 33.3309 640.589ZM91.4729 595.007C107.172 592.733 118.757 593.274 132.616 596.847C139.221 598.58 142.685 598.363 142.685 596.306C142.685 593.274 111.936 550.723 109.771 550.723C108.363 550.723 96.4534 563.933 87.142 575.951C84.6518 579.199 80.2126 584.829 77.3975 588.51C72.2005 595.115 71.226 599.446 75.2321 597.93C76.2066 597.497 83.569 596.198 91.4729 595.007Z" fill="white"/>
<path d="M179.498 640.264C179.498 637.666 187.618 625.106 192.707 619.801C195.522 616.986 199.961 613.629 202.668 612.438C205.483 611.247 207.649 609.948 207.649 609.407C207.649 605.184 204.725 588.294 202.668 579.957C199.528 567.83 195.739 557.978 190.975 549.099C189.026 545.526 185.345 538.922 182.963 534.483C174.951 519.866 172.244 508.714 174.084 498.753C176.575 485.327 192.924 458.367 207.649 443.318C214.037 436.713 218.476 434.115 218.476 437.038C218.476 437.579 215.119 442.776 211.113 448.623C193.79 473.526 191.3 480.672 195.306 494.53C197.471 502.001 199.42 506.657 208.515 525.821C219.017 547.908 221.399 553.538 223.673 560.468C226.163 568.263 228.112 577.358 228.545 583.205C228.87 588.294 231.252 588.51 237.423 584.288C247.601 577.358 262.976 572.378 274.561 572.378C285.388 572.378 306.176 577.358 326.748 584.829C347.211 592.3 360.637 592.3 377.96 584.829C381.533 583.313 379.909 587.536 374.387 594.574C362.477 609.623 346.453 622.399 329.888 630.195C311.265 638.965 297.839 641.672 273.586 641.672C255.072 641.672 245.219 640.697 225.405 636.691C204.509 632.577 188.593 633.66 183.179 639.615C181.014 641.997 179.498 642.321 179.498 640.264ZM325.124 619.476C329.346 618.502 333.894 617.419 335.409 617.094C342.231 615.578 342.339 612.114 335.626 611.68C330.537 611.356 322.309 608.541 304.552 601.286C287.662 594.249 274.885 591.542 261.243 592.083C251.607 592.516 249.442 593.058 242.079 596.522C232.118 601.07 226.055 605.509 226.055 608.108C226.055 609.623 227.571 610.165 234.5 611.139C239.047 611.789 249.442 613.846 257.454 615.687C281.274 621.1 289.177 622.183 304.011 621.641C311.481 621.425 321.009 620.451 325.124 619.476Z" fill="white"/>
<path d="M610.961 633.01C607.388 630.736 602.733 627.38 600.676 625.647C597.211 622.616 596.994 622.291 598.402 619.692C601.217 614.387 610.745 603.776 613.127 603.127C615.942 602.477 618.216 603.452 625.795 608.432C630.992 611.897 630.992 611.897 630.992 617.96C630.992 623.698 630.667 624.456 626.011 629.653C618.757 637.774 618.432 637.882 610.961 633.01Z" fill="white"/>
<path d="M544.374 635.175C544.374 634.634 549.788 630.303 556.501 625.756C585.518 605.617 610.745 585.37 609.879 582.88C609.554 582.23 607.28 580.281 604.682 578.657C587.466 567.83 559.749 563.608 543.725 569.238C532.14 573.352 532.356 571.078 545.24 551.265C547.947 547.15 556.068 537.839 563.214 530.585C574.366 519.433 577.505 516.942 584.435 513.694C588.874 511.529 596.236 509.255 600.676 508.497C605.115 507.739 609.337 506.657 609.987 506.115C610.745 505.574 611.611 501.568 612.044 497.129C613.343 482.62 617.241 472.226 626.011 459.883L630.992 452.845V524.521V596.197L626.011 592.408C619.84 587.644 619.19 587.861 607.388 597.172C580.321 618.61 566.029 628.246 552.819 633.551C545.457 636.583 544.374 636.799 544.374 635.175ZM626.553 558.519C627.744 556.353 625.578 541.737 623.521 537.947C622.871 536.648 620.489 534.266 618.324 532.642C614.534 529.718 613.993 529.61 601.325 529.719C592.014 529.719 586.384 530.368 581.836 531.776C571.984 534.699 561.698 540.871 561.698 543.794C561.698 545.201 562.78 545.31 567.436 544.768C575.232 543.794 590.173 546.392 599.268 550.29C601.109 551.156 602.949 551.806 603.274 551.806C603.599 551.806 605.981 552.672 608.579 553.863C616.7 557.436 623.954 560.359 624.712 560.468C625.145 560.468 626.011 559.602 626.553 558.519Z" fill="white"/>
<path d="M445.522 631.169C445.089 630.411 446.063 623.698 447.579 616.011C451.26 598.688 451.369 587.319 448.012 574.002C444.439 559.493 444.981 559.818 423.326 559.06C406.328 558.411 397.991 557.22 382.508 553.322C373.846 551.048 356.739 545.201 355.44 544.119C354.898 543.577 353.816 543.144 352.95 543.144C349.16 543.144 334.868 534.807 327.073 528.094C309.316 512.611 296.865 494.314 294.05 479.48C292.534 471.035 293.725 449.381 296.323 438.662C297.947 431.949 298.164 429.675 297.189 428.701C294.05 425.561 277.376 420.689 267.631 420.039C254.206 419.173 247.818 421.23 239.156 429.026C235.691 432.274 232.443 434.872 232.118 434.872C228.329 434.872 240.78 415.816 249.875 407.48C260.052 398.276 266.657 395.57 279.866 395.028L290.91 394.595L294.158 388.099C302.062 372.616 312.456 360.923 322.092 356.375C326.748 354.101 329.346 353.668 337.467 353.668C348.835 353.668 355.981 354.643 381.966 359.948C397.991 363.196 403.188 363.846 415.531 363.846C431.014 363.954 433.071 363.521 446.172 357.458C449.636 355.942 456.566 351.503 461.655 347.605C466.743 343.707 471.182 340.784 471.507 341.001C473.023 342.625 469.342 347.605 458.948 357.891C443.248 373.59 428.415 381.927 409.792 385.717C395.933 388.532 382.291 387.341 356.089 380.736C331.295 374.673 314.08 377.38 301.412 389.615C296.107 394.703 296.107 394.812 298.056 396.977C300.329 399.576 307.15 402.716 312.456 403.798C315.704 404.448 316.678 403.907 324.691 396.436C332.594 389.073 337.575 386.366 337.575 389.506C337.575 390.264 334.868 393.946 331.512 397.735C326.315 403.582 325.665 404.881 326.856 406.289C329.13 409.104 350.676 408.021 356.847 404.881C361.395 402.391 365.726 401.633 365.726 403.257C365.726 405.531 360.853 411.377 356.306 414.734C345.912 422.421 335.301 426.644 320.251 429.242C313.43 430.433 312.564 432.707 312.348 449.814C312.239 463.456 312.239 463.673 316.354 473.85C323.824 492.04 331.945 502.434 345.37 510.987C354.465 516.834 375.037 526.362 387.488 530.585C405.57 536.756 431.447 540.762 433.396 537.731C433.72 537.189 430.472 532.642 426.25 527.77C418.887 519.324 411.092 508.064 408.276 502.001C397.882 479.805 405.461 454.253 427.224 437.254C430.58 434.656 435.02 431.841 437.185 430.866C442.057 428.701 458.731 424.153 461.655 424.045C462.954 424.045 464.578 423.287 465.336 422.421C466.418 421.013 466.418 420.364 465.011 418.848C464.145 417.874 461.546 413.651 459.273 409.428C451.91 395.786 450.503 393.296 449.312 392.863C448.77 392.755 443.898 397.519 438.484 403.69C422.244 422.421 409.576 433.573 407.194 431.191C406.869 430.866 407.952 428.484 409.576 425.994C418.021 413.11 462.304 364.171 465.877 363.629C467.609 363.413 469.883 366.769 478.004 381.494C493.053 408.995 499.983 423.179 499.983 426.535C499.983 429.675 494.677 435.63 486.557 441.585C482.334 444.617 482.334 444.617 465.227 444.617C455.808 444.617 445.522 445.158 442.382 445.808C431.663 448.081 421.702 454.686 420.295 460.533C418.454 467.895 424.842 480.455 438.809 497.129C447.796 507.848 453.642 516.618 457.865 525.821C463.712 538.922 463.062 538.597 478.004 536.756C506.046 533.291 541.018 517.159 569.818 494.422C587.358 480.563 598.618 468.545 623.413 437.038L630.45 428.159L630.775 432.49C631.1 436.388 630.342 438.012 623.846 446.999C604.357 473.958 580.104 498.753 559.316 512.936C527.484 534.482 501.932 547.367 479.952 552.78C475.08 554.08 470.749 555.812 469.991 556.895C469.017 558.086 468.584 563.283 468.584 573.569C468.584 590.892 466.31 602.477 460.897 613.304C456.891 621.1 446.605 633.01 445.522 631.169Z" fill="white"/>
<path d="M382.724 629.329C381.858 627.055 384.89 623.59 399.398 610.706C413.473 598.255 413.798 597.605 406.111 594.357C398.857 591.325 389.978 593.924 383.049 601.07C380.992 603.127 378.935 604.859 378.502 604.859C376.444 604.859 377.96 599.446 381.533 593.382C386.514 585.154 388.787 582.663 395.825 578.116C403.188 573.352 411.849 572.378 422.027 575.084C432.638 578.008 436.427 578.224 440.433 576.167C445.089 573.785 446.929 575.409 444.331 579.415C438.051 588.943 402.971 619.368 388.246 628.029C384.24 630.411 383.157 630.628 382.724 629.329Z" fill="white"/>
<path d="M486.882 626.189C477.029 619.476 478.545 610.056 493.703 583.746C501.174 570.97 506.371 564.907 509.727 564.799C510.593 564.799 512.109 566.206 513.084 567.83C514.708 570.754 519.905 573.352 527.159 574.976C530.84 575.734 535.604 579.632 536.795 582.663C539.069 588.727 530.84 607.674 522.612 614.928C518.064 619.043 508.969 624.24 500.741 627.488C495.977 629.329 490.888 628.896 486.882 626.189ZM521.745 602.152C521.745 594.032 515.141 587.427 507.02 587.427C498.9 587.427 492.295 594.032 492.295 602.152C492.295 610.273 498.9 616.877 507.02 616.877C515.141 616.877 521.745 610.273 521.745 602.152Z" fill="white"/>
<path d="M29 602.369V587.319L33.1143 589.809C35.2798 591.109 38.5279 593.491 40.2603 595.115C44.4829 599.229 43.6167 602.044 35.4963 610.489L29.1083 617.31L29 602.369Z" fill="white"/>
<path d="M560.94 605.942C557.367 603.56 553.144 600.095 551.412 598.363L548.38 595.223L551.304 590.676C556.176 583.421 562.889 576.708 565.271 576.708C568.519 576.708 580.645 583.097 584.002 586.561C586.059 588.727 586.6 590.134 586.059 591.867C585.084 594.79 570.576 610.273 568.735 610.273C568.086 610.273 564.513 608.324 560.94 605.942Z" fill="white"/>
<path d="M30.7324 567.289C29.4331 552.889 28.7835 520.407 29.8662 520.407C32.2482 520.407 40.8016 529.394 43.725 535.024C45.4573 538.272 47.4062 540.979 47.9476 540.979C48.5972 540.979 54.4439 532.317 61.0485 521.815C72.7418 503.192 75.5569 499.727 75.5569 503.842C75.5569 505.79 66.4621 524.738 60.3989 535.565C49.6799 554.296 35.4963 574.543 32.8978 574.543C31.8151 574.543 31.1654 572.486 30.7324 567.289Z" fill="white"/>
<path d="M311.59 570.212C305.31 566.748 297.514 559.493 297.514 557.111C297.514 554.405 302.495 547.15 308.017 541.845C312.023 537.947 312.239 537.947 316.137 539.247C320.901 540.979 329.996 546.609 332.594 549.532C333.894 550.94 334.218 552.456 333.785 553.972C332.811 556.895 318.302 572.378 316.57 572.269C315.921 572.269 313.647 571.295 311.59 570.212Z" fill="white"/>
<path d="M252.798 559.818C252.473 559.385 252.365 557.111 252.69 554.621C253.989 545.31 248.792 538.489 231.035 525.929C211.438 512.179 206.566 505.141 208.082 492.906C208.948 484.786 217.393 468.87 225.08 460.425C234.392 450.247 236.232 451.005 230.386 462.482C228.653 465.946 227.138 470.494 227.138 472.659C227.138 481.754 235.908 492.473 253.123 504.275C266.332 513.37 266.115 513.261 266.115 511.312C266.115 510.446 262.759 506.115 258.645 501.568C248.9 491.174 247.276 487.926 247.276 479.805C247.276 472.334 249.983 465.73 258.753 451.979C264.058 443.642 273.694 433.79 276.401 433.79C278.458 433.79 279.541 435.847 278.242 437.363C274.994 441.369 268.281 456.743 268.064 460.425C267.956 465.405 270.013 468.761 281.274 482.512C291.343 494.638 294.591 501.46 294.591 510.771C294.591 519.974 291.992 527.012 285.496 535.89C280.299 543.036 269.58 552.347 260.594 557.544C255.505 560.576 253.989 561.009 252.798 559.818Z" fill="white"/>
<path d="M492.945 504.383C487.64 501.135 486.665 499.186 486.665 492.473C486.665 485.435 488.722 480.78 501.174 459.558C507.887 448.298 512.651 442.451 515.249 442.451C515.79 442.451 516.873 443.751 517.739 445.483C519.472 448.731 524.019 451.33 531.706 453.279C534.521 454.037 538.419 456.094 540.26 457.826C543.183 460.533 543.508 461.291 542.858 465.297C541.018 476.99 533.764 489.008 524.344 496.046C512.001 505.357 499.766 508.497 492.945 504.383ZM527.809 480.022C527.809 471.793 521.096 465.08 512.867 465.08C504.638 465.08 497.926 471.793 497.926 480.022C497.926 488.359 504.638 494.963 512.867 494.963C521.096 494.963 527.809 488.359 527.809 480.022Z" fill="white"/>
<path d="M53.0364 499.619C53.3612 498.861 55.8514 496.479 58.7748 494.422C81.4036 477.965 91.7977 469.628 102.084 459.234C113.127 448.19 123.63 435.089 129.043 425.778C131.967 420.581 130.884 419.606 117.242 414.842C97.103 407.804 83.7856 405.314 66.2455 405.206C54.877 405.098 54.0108 405.206 50.0047 408.129C41.1265 414.192 41.0182 411.702 49.2468 395.57C58.883 376.514 69.7102 361.356 83.0277 348.471C94.5045 337.319 105.115 332.989 124.821 331.473C127.094 331.256 129.26 330.607 129.476 329.957C129.693 329.307 128.069 326.709 125.903 324.327C120.49 318.372 113.019 306.462 109.121 298.017C106.09 291.087 105.981 290.979 100.784 290.221C92.9887 289.138 80.2126 284.699 72.6336 280.585C62.9974 275.28 45.9987 262.504 36.9038 253.734L29 246.155V222.226V198.298L33.8722 206.96C46.4318 228.939 66.2455 248.32 86.9255 258.714C94.9376 262.72 109.229 267.376 110.312 266.293C110.745 265.86 114.535 258.714 118.649 250.594C127.311 233.378 137.272 220.386 137.272 226.124C137.272 226.774 135.215 231.538 132.724 236.627C124.929 252.976 122.98 265.535 127.852 270.083C130.126 272.14 131.533 272.465 140.737 272.465C148.749 272.465 152.322 271.923 156.219 270.299C162.499 267.592 163.257 267.592 163.257 270.191C163.257 272.789 156.761 278.095 146.258 284.266C142.036 286.756 138.246 289.572 137.922 290.546C137.055 292.603 146.15 304.188 152.863 309.602C155.462 311.767 162.716 317.289 168.887 321.945C189.784 337.536 202.776 352.911 208.84 369.368C210.897 374.782 211.33 378.138 211.33 389.94C211.33 406.613 210.139 411.919 202.776 427.835C195.522 443.751 179.714 460.966 175.059 458.043C174.517 457.718 174.084 455.661 174.084 453.387C174.084 450.139 173.218 448.19 169.753 444.292C165.423 439.42 151.78 430 145.067 427.293C140.845 425.669 143.335 423.396 122.98 446.782C104.682 467.787 97.2113 474.392 75.99 488.25C65.9207 494.855 55.0935 500.918 53.3612 500.918C52.9281 500.918 52.8198 500.269 53.0364 499.619ZM193.357 411.702C193.79 399.901 191.083 391.672 182.205 377.488C178.632 371.858 169.753 362.33 168.129 362.33C167.155 362.33 166.18 364.712 165.531 368.61C164.123 375.756 161.525 384.743 158.71 391.347C157.735 393.837 157.086 396.652 157.41 397.519C157.735 398.385 161.525 400.983 165.747 403.365C170.078 405.639 177.224 410.511 181.663 414.084C186.103 417.765 190.542 420.581 191.408 420.472C192.707 420.256 193.14 418.307 193.357 411.702ZM142.685 386.042C142.685 380.087 139.437 370.667 135.864 366.553C128.61 357.999 114.751 354.426 100.459 357.35C86.2758 360.273 73.7163 367.852 66.7869 377.705C64.838 380.412 64.7297 380.845 66.3538 381.386C67.3283 381.819 70.0351 381.603 72.2005 380.845C83.3525 377.597 103.599 380.303 129.152 388.749C135.106 390.697 140.628 392.105 141.386 391.78C142.144 391.564 142.685 389.29 142.685 386.042Z" fill="white"/>
<path d="M365.942 485.76C355.223 478.181 354.79 477.207 359.879 469.952C362.044 466.704 365.293 462.915 366.917 461.399C368.649 459.991 370.056 458.151 370.056 457.285C370.056 456.418 367.783 454.145 364.968 452.304C358.363 448.081 353.816 443.859 353.816 441.91C353.816 439.853 363.344 427.402 366.917 424.803C368.865 423.396 370.598 422.962 372.114 423.504C375.145 424.478 388.571 433.465 390.303 435.63C392.144 438.012 390.087 441.585 382.508 449.597C376.12 456.418 375.145 459.233 379.043 460.424C383.807 461.94 393.876 469.519 393.876 471.685C393.876 475.041 379.151 491.174 376.12 491.174C374.712 491.174 370.165 488.683 365.942 485.76Z" fill="white"/>
<path d="M454.509 485.002C448.662 480.563 441.516 473.526 441.516 472.118C441.516 470.277 452.018 456.743 455.05 454.795C457.54 453.17 457.973 453.279 463.928 456.419C467.393 458.259 472.373 461.616 474.972 463.889L479.628 467.895L474.647 474.608C468.692 482.404 462.737 487.926 460.139 487.926C459.164 487.926 456.566 486.626 454.509 485.002Z" fill="white"/>
<path d="M29 481.646C29 476.449 29 476.449 39.0693 467.679C44.4829 462.806 50.2213 457.934 51.7371 456.635C55.0935 454.036 54.0108 451.546 48.3807 448.731C44.2663 446.674 34.3053 446.241 31.0572 447.865C29.1083 448.948 29 448.623 29 439.853C29 429.675 29.3248 429.242 39.2858 424.586C46.2152 421.338 62.0229 421.88 71.5508 425.561C80.3209 428.917 81.945 429.026 87.6834 426.211C92.6639 423.829 94.6128 423.504 95.5872 425.128C97.9692 429.026 68.6275 457.718 41.6678 478.073C35.1715 482.837 29.6496 486.843 29.4331 486.843C29.2165 486.843 29 484.461 29 481.646Z" fill="white"/>
<path d="M560.615 468.004C560.615 465.622 569.277 455.552 577.505 448.406C581.62 444.833 587.683 439.528 591.148 436.496C594.504 433.573 597.211 430.325 597.103 429.459C596.778 427.077 587.9 422.963 582.811 422.963C575.232 422.963 568.302 425.994 561.806 432.382C558.558 435.522 555.418 438.121 554.985 438.121C552.062 438.121 560.832 420.039 567.436 412.46C577.289 401.416 591.039 396.328 604.249 399.034C607.93 399.792 613.885 401.308 617.35 402.499C621.464 403.798 625.145 404.34 627.419 403.907L630.992 403.257V408.454C630.992 413.326 630.559 414.301 625.795 419.281C610.745 435.306 567.544 469.519 562.239 469.519C561.373 469.519 560.615 468.87 560.615 468.004Z" fill="white"/>
<path d="M517.306 439.095C513.95 437.904 510.81 432.923 510.81 428.809C510.81 423.179 515.466 416.033 526.185 405.422C535.604 395.894 540.043 392.863 540.043 395.894C540.043 396.436 538.311 399.251 536.146 402.066C528.242 412.46 527.376 418.523 533.439 421.447C536.687 423.071 539.827 421.988 545.89 417.007C548.489 414.95 550.871 413.218 551.304 413.218C552.819 413.218 551.845 417.874 549.68 420.905C546.323 425.778 531.923 436.93 526.942 438.662C521.854 440.502 521.096 440.502 517.306 439.095Z" fill="white"/>
<path d="M29 396.003C29 395.461 30.191 392.43 31.7068 389.182C35.0632 382.036 35.0632 381.386 31.7068 374.565C29 369.26 29 368.502 29.2165 351.503L29.5414 333.855L38.4197 345.765C50.6544 362.114 51.9536 364.604 51.9536 370.992C51.9536 379.004 45.7821 387.233 34.7384 394.162C29.7579 397.194 29 397.519 29 396.003Z" fill="white"/>
<path d="M506.804 394.595C507.129 393.188 508.645 388.749 510.16 384.742C513.3 376.514 514.058 362.438 511.676 355.726C511.026 353.668 506.263 346.847 501.174 340.567C496.085 334.288 489.589 325.843 486.774 321.945C483.85 317.939 481.143 314.691 480.602 314.691C480.061 314.691 477.246 316.531 474.322 318.805C452.127 336.237 430.689 343.599 399.073 344.682C366.159 345.873 353.058 341.109 330.104 319.563C323.066 312.958 319.06 307.328 316.462 300.074C315.271 297.15 313.972 294.335 313.43 294.011C312.889 293.577 309.966 294.335 306.934 295.418C295.457 299.857 287.012 302.997 279.108 305.596C268.497 309.169 256.696 313.5 252.581 315.232C250.849 315.99 245.652 317.722 241.213 319.021C231.468 321.836 229.52 323.352 231.144 326.925C231.793 328.224 237.099 335.695 242.837 343.383C248.684 351.178 254.314 359.407 255.397 361.789C260.377 372.616 256.154 382.036 241.971 391.78C237.423 394.92 235.258 395.786 234.392 394.92C233.634 394.162 233.742 393.188 234.933 391.888C237.748 388.64 239.372 382.469 238.614 378.246C238.181 376.081 235.691 371.533 233.093 368.069C230.494 364.604 225.297 357.891 221.724 353.127C215.011 344.357 213.062 341.001 209.922 332.014L208.19 327.142L199.528 326.492C184.587 325.301 175.708 320.862 171.269 312.309C167.805 305.704 170.728 292.711 178.415 280.26C182.963 272.789 184.912 272.898 184.912 280.368C184.912 291.196 192.274 298.666 206.891 302.456C214.253 304.405 214.686 304.188 220.316 295.202C225.73 286.865 241.971 270.624 243.595 272.248C244.353 273.006 243.92 274.413 241.971 277.012C238.939 281.126 230.386 298.341 230.386 300.507C230.386 301.59 231.577 301.806 235.583 301.265C244.569 299.966 275.86 290.113 290.91 283.941C298.922 280.585 305.96 277.878 306.501 277.878C307.042 277.878 308.883 276.904 310.615 275.604C313.539 273.547 313.755 273.006 313.755 265.643C313.755 241.932 323.824 215.08 341.04 192.885C356.847 172.53 362.694 166.25 377.094 153.582C384.89 146.761 391.386 140.698 391.603 140.048C392.36 137.991 358.471 142.43 354.79 144.92C353.383 145.895 344.396 154.123 334.976 163.218C325.448 172.313 317.545 179.242 317.328 178.593C317.003 177.835 320.143 173.937 324.149 169.931C332.811 161.053 348.402 143.837 348.402 143.08C348.402 141.889 340.173 139.29 327.83 136.583C312.023 133.119 293.183 132.685 279.974 135.392C270.23 137.449 269.147 137.774 254.422 144.92C246.41 148.818 242.837 150.009 242.079 149.251C239.264 146.436 254.097 133.119 266.765 126.947C279.216 120.884 288.203 118.718 301.737 118.718C308.666 118.718 318.411 119.368 323.5 120.234C328.588 121.1 336.6 122.291 341.364 122.941C346.128 123.482 352.083 124.349 354.465 124.565C360.312 125.431 363.235 123.049 369.19 112.98C375.578 102.153 378.285 96.3061 380.451 88.8354C382.941 80.3902 387.272 57.7613 386.622 56.7869C385.864 55.3794 375.362 55.8124 367.999 57.5448C360.312 59.3854 351.325 63.4997 347.644 66.9645C346.345 68.1554 344.829 68.8051 344.18 68.4803C342.014 67.0727 347.319 58.8441 355.331 51.0485C365.401 41.1957 371.356 37.9476 383.59 35.7821C388.463 34.916 388.788 34.0498 387.705 26.2542L386.73 19.1083H397.774H408.926L409.251 26.9039L409.576 34.8077L418.779 34.6994C429.606 34.4829 447.579 31.0182 454.509 27.6618C457.215 26.3625 461.113 23.8722 463.279 22.2482C465.444 20.5158 468.367 19.1083 469.775 19.1083C472.049 19.1083 471.616 19.7579 466.418 25.1715C450.936 40.9792 432.746 51.3733 417.155 53.2139C406.869 54.5132 406.111 55.0545 404.162 62.0922C399.615 78.4413 394.418 88.9436 381.208 108.649C372.98 120.776 371.031 124.457 372.114 125.54C373.954 127.38 399.398 127.272 406.328 125.323C412.932 123.482 424.842 117.744 431.447 113.197C436.644 109.515 439.459 110.057 437.293 114.171C435.128 118.285 422.568 128.679 407.952 138.532C383.049 155.423 365.401 171.555 351.65 190.178C335.301 212.265 329.238 232.62 332.053 256.007C332.811 262.395 334.002 268.242 334.543 269C335.301 269.866 339.091 270.299 346.128 270.299C356.956 270.299 377.202 272.573 384.457 274.63C391.169 276.579 403.621 283.4 405.57 286.215C411.092 294.011 410.55 293.794 413.798 289.463C415.422 287.298 417.046 283.616 417.371 281.343C417.804 277.77 417.48 276.579 414.556 273.222C412.716 271.165 408.818 268.025 406.003 266.185C403.188 264.452 395.933 260.013 389.762 256.224C376.986 248.32 371.031 242.365 367.133 233.703C364.643 228.29 364.318 226.016 364.21 215.622C364.102 201.871 365.293 197.865 372.763 187.471C379.693 177.835 399.94 158.779 403.296 158.779C404.27 158.779 404.487 160.078 404.054 163.651C403.404 168.307 403.404 168.523 409.251 174.262C412.499 177.402 419.753 183.465 425.383 187.579C438.051 197.107 447.579 207.177 451.802 215.622C454.617 221.252 455.05 223.309 455.05 230.78C455.05 240.091 455.591 238.467 445.522 257.848C444.006 260.879 441.949 265.319 440.866 267.809C437.51 276.146 401.997 308.627 393.01 311.551C388.679 312.958 387.597 312.2 383.915 304.946C379.801 296.934 377.527 295.959 360.853 294.769C342.664 293.469 341.473 294.119 348.402 301.265C360.204 313.391 371.681 319.671 390.736 324.543C403.404 327.683 404.92 327.9 418.237 327.25C433.071 326.6 439.459 325.409 451.802 320.754C458.406 318.264 473.998 308.952 473.998 307.436C473.998 307.22 472.157 303.214 469.991 298.666C463.17 284.483 464.578 274.522 477.246 250.269C486.774 231.971 497.168 217.246 500.741 217.246C503.231 217.246 502.256 220.277 497.384 227.207C487.423 241.607 486.557 243.881 486.774 253.733C486.882 258.497 487.64 265.319 488.614 268.675C490.671 276.904 495.435 286.756 497.059 286.323C497.817 286.107 502.256 280.693 507.02 274.413C517.523 260.446 521.745 255.899 523.045 257.198C524.344 258.497 519.905 266.943 510.16 281.776C505.721 288.489 502.148 294.335 502.148 294.769C502.148 295.202 506.263 301.698 511.243 309.169C527.592 333.53 531.057 342.192 529.866 354.643C529.108 362.114 529.758 363.954 532.681 362.872C534.63 362.114 540.26 353.56 544.591 345.007C554.66 324.652 562.564 317.289 582.811 309.277C595.37 304.296 604.357 303.972 619.082 307.869L630.45 310.901L630.775 324.218C630.883 331.473 630.775 337.428 630.559 337.428C630.234 337.428 626.769 336.237 622.655 334.937C597.969 326.384 593.313 325.626 582.378 327.9C570.576 330.282 562.456 334.613 553.577 343.058C544.374 351.72 544.699 353.235 555.31 351.611C571.009 349.013 578.48 350.095 603.382 358.649C611.178 361.247 620.381 364.062 623.954 364.82L630.45 366.336L630.775 378.571L631.1 390.806L620.489 390.156C609.987 389.398 598.077 386.691 592.23 383.66C572.85 373.59 570.143 372.941 547.731 372.941L529.974 373.049L526.185 376.622C524.127 378.571 520.771 382.902 518.606 386.15C513.517 394.162 510.81 396.977 508.32 396.977C506.696 396.977 506.371 396.436 506.804 394.595ZM432.854 245.505C432.854 235.436 425.492 225.258 410.334 214.431C403.946 209.775 396.15 203.928 393.118 201.222C386.081 195.375 383.59 195.591 384.673 202.088C386.406 212.265 394.959 224.825 405.353 232.512C411.416 236.951 430.689 248.645 432.096 248.645C432.529 248.645 432.854 247.237 432.854 245.505Z" fill="white"/>
<path d="M262.218 376.297C261.351 374.782 267.306 368.61 287.12 350.312C291.992 345.765 292.209 345.332 290.585 343.599C287.445 340.459 280.624 339.268 274.452 340.784C270.23 341.759 267.415 343.383 263.192 347.497C260.052 350.529 257.129 352.586 256.804 352.261C254.747 350.204 264.167 333.638 270.555 328.333C279.866 320.429 292.426 318.697 306.068 323.244C313.214 325.626 316.57 325.41 321.118 322.486C325.124 319.888 326.423 322.378 323.608 326.925C318.844 334.721 287.878 362.006 271.096 373.266C264.275 377.813 263.409 378.138 262.218 376.297Z" fill="white"/>
<path d="M54.3356 352.694C50.0047 350.095 40.9099 339.81 41.0182 337.536C41.0182 336.561 42.6423 333.638 44.6994 330.931C53.9025 318.588 54.1191 318.264 52.9281 315.882C52.2785 314.691 49.5717 312.2 46.8649 310.251C44.2663 308.303 41.7761 305.921 41.4513 304.838C40.152 300.94 50.7626 285.457 54.6604 285.457C56.9341 285.457 66.2455 292.387 68.411 295.743C71.6591 300.615 70.6847 304.513 64.7297 310.793C61.8064 313.933 59.3161 317.073 59.3161 317.722C59.3161 318.372 62.9974 322.161 67.4365 326.167C73.2832 331.364 75.5569 334.18 75.5569 336.02C75.5569 338.943 66.029 349.662 60.7237 352.802C57.692 354.535 57.3672 354.535 54.3356 352.694Z" fill="white"/>
<path d="M535.171 302.348C532.139 300.29 527.917 296.934 525.643 294.877C520.771 290.329 520.879 290.221 529.216 280.044C536.037 271.923 538.419 271.274 545.782 275.171C553.361 279.286 559.532 284.158 559.532 286.215C559.532 290.005 545.024 306.029 541.559 306.029C541.018 306.029 538.094 304.405 535.171 302.348Z" fill="white"/>
<path d="M618.432 287.623C611.07 286.107 594.179 280.152 585.734 276.038C559.207 263.153 549.68 246.046 554.119 220.169C555.743 211.291 555.418 210.966 545.998 208.151C542.425 207.177 538.528 205.877 537.337 205.336C533.114 203.387 518.93 199.922 515.033 199.922C505.721 199.922 495.435 205.228 483.742 216.055C476.163 223.093 474.539 221.902 479.411 212.698C484.825 202.521 490.78 193.967 495.111 190.394C501.499 185.197 512.001 180.542 522.828 178.16C531.815 176.211 533.98 176.103 541.343 177.185C549.896 178.376 559.207 181.083 561.048 182.707C563.647 185.089 566.895 183.573 570.468 178.268C573.716 173.504 576.531 171.014 577.505 172.096C577.722 172.205 577.181 175.02 576.314 178.268C573.824 187.471 574.041 187.796 580.754 190.936C589.091 194.725 598.185 195.267 606.955 192.56C612.585 190.719 613.885 190.611 614.426 191.91C615.401 194.509 610.312 201.113 604.573 204.795C596.561 209.883 592.663 211.291 582.269 212.915C569.818 214.756 570.359 214.431 570.359 219.086C570.359 226.666 580.645 243.231 589.74 250.594C597.969 257.198 625.578 267.701 625.578 264.236C625.578 263.911 623.954 261.746 622.005 259.364C613.885 249.944 612.261 231.213 618.54 219.086C621.897 212.698 628.718 203.279 630.234 203.171C630.667 203.171 630.992 222.443 630.992 245.938V288.705L626.986 288.597C624.712 288.489 620.814 288.056 618.432 287.623Z" fill="white"/>
<path d="M206.999 273.006C206.566 272.14 206.891 269.216 207.54 266.51C209.273 259.58 209.056 254.816 206.458 248.428C200.936 234.245 189.784 221.035 175.708 211.941C166.397 205.986 146.258 195.592 143.876 195.592C143.01 195.592 137.38 198.84 131.425 202.954C125.47 206.96 117.025 211.941 112.694 213.998C106.09 217.246 104.032 218.978 99.0519 225.366C92.6639 233.811 84.76 239.333 83.569 236.302C83.2442 235.327 83.6773 233.27 84.6518 231.754C85.8427 230.022 86.4924 226.557 86.6006 221.793C86.7089 212.59 83.569 205.769 72.2005 191.369C67.7613 185.847 62.0229 178.593 59.3161 175.128C45.3491 157.263 43.725 141.672 53.7943 120.343C61.1568 104.427 80.2126 84.5045 85.951 86.67C87.2503 87.2113 86.3841 88.8354 81.5119 94.5738C78.2637 98.6881 74.1494 104.643 72.5253 107.891C69.9268 113.197 69.602 115.037 69.602 125.215C69.7102 135.609 69.9268 137.125 72.7418 142.538C76.9645 150.659 83.136 159.645 92.2308 171.23C96.5617 176.644 101.542 183.465 103.491 186.497C106.739 191.585 106.956 192.668 106.956 201.33C106.956 208.368 107.281 210.75 108.363 210.75C109.121 210.75 114.86 206.852 121.139 201.98C127.311 197.216 133.049 192.993 133.807 192.668C135.973 191.802 135.323 188.446 132.724 186.605C131.317 185.739 128.502 182.166 126.445 178.701C122.98 172.963 122.655 171.663 122.655 164.193C122.763 157.805 123.305 154.773 125.47 150.117C130.667 138.965 148.857 119.043 151.564 121.75C152.322 122.508 151.997 123.807 150.373 126.081C146.258 131.819 142.685 140.806 142.685 145.245C142.685 151.092 147.341 159.862 153.621 165.817C159.251 171.122 160.117 171.447 162.932 169.173C175.059 159.32 186.427 149.359 186.752 148.277C186.969 147.627 185.128 145.245 182.638 142.863C171.702 132.794 168.779 117.636 175.059 104.318C180.581 92.8415 193.573 78.6578 198.662 78.6578C200.611 78.6578 200.503 79.4158 197.904 82.9887C191.3 92.1918 189.784 102.478 193.573 110.815C195.847 116.012 205.05 126.297 207.216 126.297C211.871 126.297 228.22 95.6565 232.118 79.7406C233.959 72.2698 233.959 72.7029 231.902 70.6457C230.819 69.4547 228.22 68.9134 224.322 68.9134C213.82 68.9134 194.439 65.5569 188.376 62.7419C181.772 59.602 178.199 55.3794 175.708 47.4755C173.435 40.7627 173.976 29.719 176.683 23.2226L178.415 19.1083H187.185C194.981 19.1083 195.739 19.3249 194.873 20.9489C192.815 24.4136 197.146 33.9416 202.452 37.7311C207.757 41.6289 210.789 42.8199 217.934 43.9026C227.354 45.3101 230.277 43.686 227.679 38.5972C224.647 32.7506 213.387 25.1715 201.152 20.6241C197.904 19.4331 200.828 19.2166 223.673 19.2166C238.073 19.1083 249.875 19.2166 249.875 19.4331C249.875 19.5414 250.849 22.3565 252.04 25.6046C253.339 28.8528 254.53 34.6995 254.963 38.489C255.613 44.9853 255.83 45.4184 259.186 46.8259C261.135 47.6921 264.058 48.3417 265.574 48.3417C270.338 48.3417 288.636 54.4049 300.654 59.9268C312.239 65.3404 313.214 64.366 305.418 55.3794C299.138 48.0169 293.617 42.9281 277.484 29.3941C263.842 17.809 262.326 19.1083 289.719 19.1083H313.755L318.627 23.5475C324.691 29.1776 332.486 40.6544 334.76 47.6921C341.04 66.0983 335.734 85.9121 320.793 100.204C316.678 104.21 312.997 106.809 311.914 106.592C310.94 106.375 308.991 104.102 307.584 101.395C301.087 89.052 283.764 77.0338 266.332 72.7029C253.448 69.563 254.206 69.1299 242.296 89.485C231.252 108.541 221.507 123.049 216.96 127.272C215.444 128.788 214.145 130.412 214.145 130.953C214.145 131.495 219.234 136.908 225.405 142.971C237.207 154.556 242.62 162.46 246.843 174.262C250.308 184.115 250.308 204.037 246.735 213.998C243.378 223.526 239.589 231.321 235.366 237.493C233.417 240.416 229.736 247.021 227.138 252.218C222.049 262.504 215.769 270.516 210.789 273.114C207.973 274.522 207.54 274.522 206.999 273.006ZM230.494 222.443C231.468 220.061 232.01 214.539 232.01 206.419C232.01 194.617 231.793 193.643 228.437 186.713C223.023 175.561 200.719 153.365 194.981 153.365C192.274 153.365 168.671 172.638 168.671 174.803C168.671 176.319 176.25 181.3 188.701 187.904C198.77 193.318 209.164 200.572 213.171 204.903C216.96 209.017 223.889 219.953 223.889 221.902C223.889 223.634 226.055 225.908 227.787 225.908C228.437 225.908 229.736 224.284 230.494 222.443Z" fill="white"/>
<path d="M269.58 269C268.822 268.242 268.281 264.886 268.281 261.529C268.281 254.925 266.007 247.237 263.192 244.097C260.269 240.849 253.664 239.55 249.658 241.499C244.569 244.097 243.054 243.773 243.92 240.308C245.436 234.136 251.39 223.634 255.397 219.953C260.485 215.405 263.95 214.431 268.389 216.163C272.395 217.896 279 225.258 281.815 231.213C284.522 236.843 287.12 236.735 290.368 230.78C297.189 217.896 310.832 197.757 312.672 197.757C314.621 197.757 313.755 200.031 306.284 214.864C296.215 235.002 279.108 263.153 274.019 267.917C270.988 270.732 271.204 270.624 269.58 269Z" fill="white"/>
<path d="M151.347 240.091C140.953 232.404 139.762 230.888 141.711 227.315C142.577 225.799 146.258 221.252 149.94 217.354L156.653 210.208L164.773 214.431C169.32 216.813 174.193 220.061 175.817 221.685C178.523 224.5 178.523 224.717 176.899 227.965C174.409 232.729 162.283 245.397 160.117 245.397C159.143 245.288 155.245 243.015 151.347 240.091Z" fill="white"/>
<path d="M521.637 241.174C518.389 238.792 514.275 235.436 512.542 233.595C509.511 230.455 509.402 230.13 510.918 227.315C511.784 225.691 515.357 221.252 519.039 217.354L525.535 210.425L532.573 213.998C542.642 218.978 548.164 223.742 547.189 226.666C546.107 229.914 531.273 245.397 529.216 245.397C528.35 245.288 524.885 243.448 521.637 241.174Z" fill="white"/>
<path d="M274.128 185.955C270.663 183.682 266.332 180.325 264.6 178.485L261.46 175.128L264.275 170.472C267.848 164.517 276.185 155.531 278.134 155.531C280.732 155.531 296.432 165.384 298.272 168.09C299.788 170.472 299.68 170.905 295.998 175.886C291.992 181.516 283.006 190.178 281.49 190.178C280.949 190.178 277.701 188.337 274.128 185.955Z" fill="white"/>
<path d="M430.905 184.439C431.23 183.14 438.917 176.103 457.215 160.403C482.876 138.316 503.123 115.145 509.078 100.854C510.485 97.4971 510.485 96.9558 508.861 94.8986C504.855 90.1346 480.386 84.0714 464.903 84.0714C455.266 84.0714 443.357 87.103 436.427 91.2173C427.657 96.5227 425.275 97.3888 424.517 95.3317C423.326 92.3001 436.752 68.8051 447.796 54.4049C455.158 44.877 469.234 31.1264 478.328 24.7384L486.34 19.1083H515.357C547.081 19.1083 546.107 19 555.634 25.7128C569.277 35.5656 580.862 50.5071 585.518 64.3659C590.39 78.9826 592.555 106.917 589.415 113.088C587.25 117.311 573.066 130.628 570.793 130.628C569.818 130.628 566.678 128.355 563.971 125.431C552.711 113.846 532.464 100.312 526.293 100.312C524.885 100.312 522.178 102.802 518.822 107.025C503.664 126.297 486.232 144.812 465.877 163.002C449.311 177.835 446.821 179.675 438.376 183.032C430.256 186.28 430.472 186.28 430.905 184.439ZM565.487 88.4023C566.353 86.9947 563.214 77.3585 560.29 72.2698C554.877 62.8501 543.183 51.5898 538.961 51.5898C537.445 51.5898 536.903 53.1056 536.254 59.4937C534.738 74.76 534.088 73.2442 543.833 78.1164C548.597 80.4984 554.01 83.4218 555.743 84.6128C563.43 89.7015 564.405 90.1346 565.487 88.4023ZM482.659 63.1749C492.187 63.1749 498.25 63.7163 503.123 65.0155C510.702 67.0727 512.975 66.7479 512.975 63.7163C512.975 57.1117 503.556 45.3101 495.219 41.4123C489.805 38.8137 478.978 39.4634 471.291 42.8198C459.273 48.1251 443.573 66.2065 449.312 68.0472C450.069 68.372 454.725 67.2893 459.922 65.8817C467.285 63.8246 471.724 63.2832 482.659 63.1749Z" fill="white"/>
<path d="M608.796 173.396C604.682 172.638 593.421 170.039 583.893 167.657C562.672 162.46 557.259 161.702 549.788 163.11C543.616 164.301 533.33 168.848 531.273 171.339C530.624 172.205 529.324 172.854 528.567 172.854C523.911 172.854 531.057 160.728 539.61 154.123C557.583 140.156 572.741 139.074 610.961 148.926C618.107 150.767 625.578 152.283 627.527 152.283H630.992V163.651V175.02L623.738 174.912C619.623 174.803 613.019 174.154 608.796 173.396Z" fill="white"/>
<path d="M504.205 167.441C502.04 166.358 497.926 163.218 495.002 160.62L489.697 155.748L491.754 151.85C492.837 149.793 496.41 145.245 499.766 141.997C504.314 137.341 506.154 136.042 507.995 136.475C512.109 137.558 522.178 143.405 525.318 146.761C529.216 150.875 528.783 151.85 519.147 162.352C511.784 170.148 510.377 170.689 504.205 167.441Z" fill="white"/>
<path d="M461.546 121.642C449.961 113.305 448.012 111.681 447.471 110.273C446.172 106.809 459.597 90.5677 463.82 90.5677C466.527 90.5677 478.328 97.0641 482.443 100.637C483.742 101.828 484.825 103.669 484.825 104.751C484.825 107.242 468.909 124.132 466.527 124.024C465.552 124.024 463.387 122.941 461.546 121.642Z" fill="white"/>
<path d="M110.204 115.254C110.204 114.496 111.72 112.114 113.56 110.057C115.293 108 119.299 103.452 122.222 100.096C130.667 90.3512 135.106 84.288 141.278 73.7856C149.29 60.1433 155.57 41.4123 157.302 25.9294L158.06 19.1083H163.149H168.346L165.964 28.6362C158.385 58.9523 144.31 84.3962 122.655 106.592C113.452 116.012 110.204 118.285 110.204 115.254Z" fill="white"/>
<path d="M40.8016 102.153C29.7579 94.3572 29 93.4911 29 90.0264C29 85.5872 40.8016 72.1615 44.6994 72.1615C49.2468 72.1615 65.8124 82.8804 65.8124 85.8038C65.8124 88.1857 50.2213 105.184 47.8393 105.401C46.7566 105.618 43.5084 104.102 40.8016 102.153Z" fill="white"/>
<path d="M82.7029 73.7856C79.1299 67.8306 75.6652 65.1238 62.0229 58.0861C40.5851 47.0424 36.3625 42.0619 36.1459 27.77L36.0377 19.6496L46.4318 19.3248L56.9341 19L60.074 22.7895C63.8635 27.4452 69.4937 31.5595 79.3464 36.9731C89.524 42.495 97.2113 47.6921 100.459 51.0485C101.975 52.6726 104.141 53.7553 105.981 53.7553C113.127 53.7553 117.675 31.343 112.369 22.6812L110.204 19.1083H122.114C131.425 19.1083 134.024 19.4331 134.024 20.6241C134.024 22.8978 125.687 38.2724 119.84 46.7176C108.688 62.8501 92.6639 78.6578 87.3585 78.6578C86.2758 78.6578 84.3269 76.6006 82.7029 73.7856Z" fill="white"/>
<path d="M605.331 67.5058C593.963 59.8185 593.854 58.1944 602.949 47.3672C609.229 40.0048 609.879 39.4634 613.127 40.0048C615.076 40.3296 619.948 42.6033 623.846 45.0935C630.883 49.5327 630.992 49.641 630.992 54.5132C630.992 59.0606 630.559 59.8185 624.062 66.3148C620.273 70.1043 616.375 73.2442 615.401 73.2442C614.534 73.2442 609.987 70.6457 605.331 67.5058Z" fill="white"/>
<path d="M342.664 31.343C342.231 31.0182 341.906 29.6107 341.906 28.3114C341.906 25.7129 339.849 23.5474 334.868 20.9489C331.728 19.2165 332.27 19.2165 346.561 19.1083H361.503L359.554 22.4647C356.089 28.3114 345.262 34.0498 342.664 31.343Z" fill="white"/>
<path d="M436.427 22.2482C434.478 20.9489 432.854 19.7579 432.854 19.5414C432.854 19.3248 436.102 19.1083 440.217 19.1083L447.471 19.2165L444.439 21.8151C440.758 25.0632 440.758 25.0632 436.427 22.2482Z" fill="white"/>
<path d="M633.576 644.106C633.576 647.755 622.296 665.892 609.91 682.26C606.15 687.126 594.427 701.835 583.699 714.884C573.083 727.934 563.24 740.099 561.913 741.979L559.48 745.297L561.913 754.144C563.682 760.78 564.346 766.088 564.346 775.71C564.346 788.981 562.687 795.285 555.941 808.334C547.647 824.37 533.491 843.281 527.298 846.599C523.095 848.811 523.869 844.498 529.288 835.208C537.14 821.937 539.684 815.965 541.564 806.675C543.665 796.612 542.449 783.119 539.463 782.567C538.578 782.456 537.251 783.23 536.698 784.447C535.371 787.433 525.086 801.588 516.792 811.984C508.829 821.937 500.203 830.232 498.655 829.347C497.327 828.573 499.539 824.481 511.041 806.123C523.759 785.552 531.943 770.401 532.053 766.973C532.164 762.549 526.302 752.154 518.229 742.532C499.65 720.303 495.116 710.461 495.005 692.213C494.894 681.707 495.116 680.712 498.876 672.86C503.078 664.233 513.142 651.847 515.907 651.847C516.902 651.847 518.782 653.285 520.22 655.054C526.413 662.353 543.776 666.224 571.092 666.224C598.961 666.224 610.573 662.685 623.512 650.188C630.59 643.442 633.576 641.562 633.576 644.106ZM574.189 690.665C558.153 692.987 546.32 692.434 532.164 688.785C525.418 687.015 521.879 687.237 521.879 689.338C521.879 692.434 553.287 735.897 555.499 735.897C556.936 735.897 569.101 722.405 578.612 710.129C581.156 706.811 585.69 701.06 588.566 697.3C593.874 690.554 594.869 686.131 590.777 687.679C589.782 688.121 582.262 689.448 574.189 690.665Z" fill="white"/>
<path d="M484.278 644.438C484.278 647.092 475.983 659.921 470.785 665.339C467.91 668.215 463.376 671.643 460.611 672.86C457.736 674.076 455.524 675.403 455.524 675.956C455.524 680.269 458.51 697.522 460.611 706.037C463.818 718.423 467.689 728.487 472.555 737.556C474.546 741.205 478.306 747.951 480.739 752.486C488.922 767.416 491.687 778.806 489.807 788.981C487.264 802.694 470.564 830.232 455.524 845.604C448.999 852.35 444.465 855.004 444.465 852.018C444.465 851.465 447.893 846.157 451.985 840.185C469.68 814.749 472.223 807.45 468.131 793.294C465.919 785.663 463.929 780.908 454.639 761.333C443.912 738.772 441.479 733.022 439.156 725.944C436.613 717.981 434.622 708.691 434.18 702.719C433.848 697.522 431.415 697.3 425.111 701.614C414.715 708.691 399.011 713.779 387.178 713.779C376.119 713.779 354.885 708.691 333.873 701.061C312.971 693.43 299.258 693.43 281.563 701.061C277.914 702.609 279.573 698.296 285.213 691.107C297.378 675.735 313.745 662.685 330.666 654.723C349.688 645.765 363.401 643 388.173 643C407.085 643 417.149 643.995 437.387 648.087C458.731 652.29 474.988 651.184 480.518 645.101C482.729 642.668 484.278 642.336 484.278 644.438ZM335.532 665.671C331.219 666.667 326.574 667.772 325.026 668.104C318.058 669.653 317.948 673.191 324.804 673.634C330.002 673.966 338.407 676.841 356.544 684.251C373.797 691.439 386.846 694.204 400.781 693.651C410.624 693.209 412.835 692.656 420.356 689.117C430.53 684.472 436.723 679.938 436.723 677.283C436.723 675.735 435.175 675.182 428.097 674.187C423.452 673.523 412.835 671.422 404.652 669.542C380.321 664.012 372.248 662.906 357.097 663.459C349.466 663.681 339.734 664.676 335.532 665.671Z" fill="white"/>
<path d="M43.57 651.847C47.2195 654.17 51.9749 657.598 54.0762 659.367C57.6151 662.464 57.8363 662.796 56.3986 665.45C53.5232 670.869 43.7911 681.707 41.3581 682.371C38.4828 683.034 36.1603 682.039 28.4189 676.952C23.1105 673.413 23.1105 673.413 23.1105 667.22C23.1105 661.358 23.4423 660.584 28.1977 655.276C35.6073 646.981 35.9391 646.871 43.57 651.847Z" fill="white"/>
<path d="M111.584 649.635C111.584 650.188 106.054 654.612 99.1976 659.257C69.559 679.827 43.7912 700.508 44.6759 703.051C45.0077 703.715 47.3301 705.705 49.9843 707.364C67.5684 718.423 95.8798 722.736 112.247 716.986C124.081 712.783 123.86 715.106 110.699 735.344C107.934 739.546 99.64 749.057 92.3409 756.467C80.95 767.858 77.7428 770.401 70.6649 773.719C66.1307 775.931 58.6105 778.253 54.0762 779.028C49.5419 779.802 45.2289 780.908 44.5653 781.461C43.7912 782.014 42.9064 786.105 42.4641 790.64C41.137 805.459 37.1557 816.076 28.1977 828.683L23.1105 835.872L23.1105 762.66L23.1106 689.448L28.1977 693.319C34.5015 698.185 35.165 697.964 47.2195 688.453C74.8674 666.556 89.4655 656.713 102.958 651.294C110.478 648.198 111.584 647.977 111.584 649.635ZM27.6448 727.934C26.4283 730.146 28.6402 745.076 30.7414 748.947C31.4049 750.274 33.838 752.707 36.0498 754.366C39.9205 757.352 40.4735 757.462 53.4127 757.352C62.9236 757.352 68.6743 756.688 73.3191 755.25C83.383 752.264 93.8892 745.961 93.8892 742.975C93.8892 741.537 92.7833 741.426 88.0278 741.979C80.0652 742.975 64.8036 740.321 55.5139 736.339C53.6338 735.455 51.7538 734.791 51.422 734.791C51.0902 734.791 48.6572 733.906 46.003 732.69C37.7087 729.04 30.299 726.054 29.5249 725.944C29.0825 725.944 28.1977 726.828 27.6448 727.934Z" fill="white"/>
<path d="M212.554 653.727C212.996 654.502 212.001 661.358 210.453 669.21C206.693 686.905 206.582 698.517 210.01 712.12C213.66 726.939 213.107 726.607 235.225 727.381C252.588 728.045 261.104 729.262 276.918 733.243C285.766 735.565 303.239 741.537 304.566 742.643C305.119 743.196 306.225 743.638 307.11 743.638C310.981 743.638 325.579 752.154 333.541 759.011C351.678 774.825 364.396 793.515 367.272 808.666C368.82 817.292 367.603 839.411 364.949 850.359C363.29 857.216 363.069 859.538 364.065 860.534C367.272 863.741 384.303 868.718 394.256 869.381C407.969 870.266 414.494 868.165 423.342 860.202C426.881 856.884 430.198 854.23 430.53 854.23C434.401 854.23 421.683 873.694 412.393 882.21C401.997 891.61 395.251 894.375 381.759 894.928L370.479 895.37L367.161 902.006C359.088 917.82 348.471 929.764 338.628 934.409C333.873 936.731 331.219 937.174 322.924 937.174C311.312 937.174 304.013 936.178 277.471 930.759C261.104 927.442 255.795 926.778 243.188 926.778C227.373 926.668 225.272 927.11 211.89 933.303C208.352 934.851 201.274 939.386 196.076 943.367C190.878 947.348 186.344 950.334 186.012 950.113C184.464 948.454 188.224 943.367 198.841 932.861C214.876 916.825 230.027 908.309 249.049 904.439C263.205 901.563 277.139 902.78 303.903 909.526C329.228 915.719 346.812 912.954 359.751 900.457C365.17 895.26 365.17 895.149 363.18 892.937C360.857 890.283 353.89 887.076 348.471 885.97C345.153 885.306 344.158 885.859 335.974 893.49C327.901 901.01 322.814 903.775 322.814 900.568C322.814 899.794 325.579 896.034 329.007 892.163C334.315 886.191 334.979 884.864 333.762 883.426C331.44 880.551 309.432 881.657 303.129 884.864C298.484 887.408 294.06 888.182 294.06 886.523C294.06 884.2 299.037 878.228 303.681 874.8C314.298 866.948 325.136 862.635 340.508 859.981C347.476 858.764 348.36 856.442 348.582 838.968C348.692 825.034 348.692 824.813 344.49 814.417C336.859 795.838 328.565 785.221 314.851 776.484C305.562 770.512 284.549 760.78 271.831 756.467C253.362 750.163 226.931 746.071 224.94 749.168C224.608 749.721 227.926 754.366 232.239 759.342C239.76 767.969 247.722 779.47 250.598 785.663C261.214 808.335 253.473 834.434 231.244 851.797C227.816 854.451 223.281 857.327 221.07 858.322C216.093 860.534 199.062 865.179 196.076 865.289C194.749 865.289 193.09 866.063 192.316 866.948C191.21 868.386 191.21 869.049 192.647 870.598C193.532 871.593 196.186 875.906 198.509 880.219C206.029 894.154 207.467 896.697 208.683 897.14C209.236 897.25 214.213 892.384 219.742 886.08C236.331 866.948 249.27 855.557 251.703 857.99C252.035 858.322 250.929 860.755 249.27 863.299C240.644 876.459 195.412 926.446 191.763 926.999C189.993 927.22 187.671 923.792 179.376 908.752C164.004 880.661 156.926 866.174 156.926 862.746C156.926 859.538 162.345 853.456 170.64 847.373C174.953 844.277 174.953 844.277 192.426 844.277C202.048 844.277 212.554 843.724 215.761 843.06C226.71 840.738 236.884 833.992 238.322 828.02C240.202 820.5 233.677 807.671 219.411 790.64C210.232 779.691 204.26 770.733 199.947 761.333C193.975 747.951 194.638 748.283 179.377 750.163C150.733 753.702 115.012 770.18 85.5948 793.405C67.679 807.56 56.1775 819.836 30.852 852.018L23.6635 861.087L23.3318 856.663C23 852.682 23.7741 851.023 30.4096 841.844C50.3161 814.306 75.0887 788.981 96.3222 774.493C128.836 752.486 154.936 739.325 177.386 733.796C182.362 732.469 186.786 730.699 187.56 729.593C188.556 728.377 188.998 723.068 188.998 712.562C188.998 694.868 191.32 683.034 196.85 671.975C200.942 664.012 211.448 651.847 212.554 653.727Z" fill="white"/>
<path d="M276.697 655.607C277.582 657.93 274.485 661.469 259.666 674.629C245.289 687.347 244.957 688.011 252.809 691.329C260.219 694.425 269.288 691.771 276.365 684.472C278.467 682.371 280.568 680.601 281.01 680.601C283.112 680.601 281.563 686.131 277.914 692.324C272.826 700.729 270.504 703.272 263.316 707.917C255.795 712.783 246.948 713.779 236.552 711.014C225.714 708.028 221.844 707.807 217.752 709.908C212.996 712.341 211.116 710.682 213.771 706.59C220.185 696.858 256.017 665.782 271.057 656.934C275.149 654.501 276.255 654.28 276.697 655.607Z" fill="white"/>
<path d="M170.308 658.814C180.372 665.671 178.824 675.293 163.341 702.166C155.71 715.216 150.402 721.409 146.973 721.52C146.088 721.52 144.54 720.082 143.545 718.423C141.886 715.437 136.578 712.783 129.168 711.124C125.408 710.35 120.542 706.369 119.325 703.272C117.003 697.079 125.408 677.726 133.813 670.316C138.458 666.114 147.747 660.805 156.152 657.487C161.018 655.607 166.216 656.05 170.308 658.814ZM134.697 683.366C134.697 691.66 141.444 698.406 149.738 698.406C158.032 698.406 164.778 691.66 164.778 683.366C164.778 675.071 158.032 668.325 149.738 668.325C141.444 668.325 134.697 675.071 134.697 683.366Z" fill="white"/>
<path d="M94.6633 679.495C98.3129 681.928 102.626 685.467 104.395 687.237L107.492 690.444L104.506 695.089C99.5294 702.498 92.6727 709.355 90.2397 709.355C86.9219 709.355 74.5357 702.83 71.1073 699.291C69.0061 697.079 68.4531 695.642 69.0061 693.872C70.0014 690.886 84.8207 675.072 86.7007 675.072C87.3643 675.072 91.0138 677.062 94.6633 679.495Z" fill="white"/>
<path d="M636.231 718.976C637.558 733.685 638.221 766.863 637.115 766.863C634.682 766.863 625.945 757.683 622.96 751.933C621.19 748.615 619.199 745.85 618.646 745.85C617.983 745.85 612.011 754.698 605.265 765.425C593.321 784.447 590.446 787.986 590.446 783.783C590.446 781.792 599.735 762.439 605.928 751.38C616.877 732.247 631.364 711.567 634.019 711.567C635.125 711.567 635.788 713.668 636.231 718.976Z" fill="white"/>
<path d="M349.356 715.99C355.77 719.529 363.733 726.939 363.733 729.372C363.733 732.137 358.646 739.546 353.005 744.965C348.913 748.947 348.692 748.947 344.711 747.62C339.845 745.85 330.555 740.099 327.901 737.113C326.574 735.676 326.242 734.127 326.685 732.579C327.68 729.593 342.499 713.779 344.269 713.889C344.932 713.889 347.255 714.884 349.356 715.99Z" fill="white"/>
<path d="M409.407 726.607C409.739 727.05 409.849 729.372 409.518 731.916C408.191 741.427 413.499 748.394 431.636 761.222C451.653 775.268 456.63 782.456 455.081 794.953C454.197 803.247 445.571 819.504 437.719 828.13C428.208 838.526 426.328 837.752 432.3 826.029C434.069 822.49 435.617 817.845 435.617 815.634C435.617 806.344 426.659 795.395 409.075 783.341C395.583 774.051 395.804 774.162 395.804 776.152C395.804 777.037 399.233 781.461 403.435 786.106C413.388 796.722 415.047 800.04 415.047 808.334C415.047 815.965 412.282 822.711 403.325 836.757C397.906 845.272 388.063 855.336 385.298 855.336C383.197 855.336 382.091 853.235 383.418 851.686C386.736 847.595 393.592 831.891 393.814 828.13C393.924 823.043 391.823 819.615 380.321 805.57C370.036 793.183 366.719 786.216 366.719 776.705C366.719 767.305 369.373 760.117 376.008 751.048C381.317 743.749 392.265 734.238 401.444 728.93C406.642 725.833 408.191 725.391 409.407 726.607Z" fill="white"/>
<path d="M164.115 783.23C169.534 786.548 170.529 788.538 170.529 795.395C170.529 802.584 168.428 807.339 155.71 829.015C148.853 840.516 143.987 846.488 141.333 846.488C140.78 846.488 139.674 845.161 138.789 843.392C137.02 840.074 132.375 837.42 124.523 835.429C121.648 834.655 117.666 832.554 115.786 830.784C112.8 828.02 112.469 827.245 113.132 823.154C115.012 811.21 122.422 798.934 132.043 791.746C144.651 782.235 157.148 779.027 164.115 783.23ZM128.504 808.113C128.504 816.518 135.361 823.375 143.766 823.375C152.171 823.375 159.028 816.518 159.028 808.113C159.028 799.598 152.171 792.851 143.766 792.851C135.361 792.851 128.504 799.598 128.504 808.113Z" fill="white"/>
<path d="M613.449 788.096C613.117 788.87 610.573 791.303 607.587 793.404C584.474 810.214 573.857 818.73 563.351 829.347C552.07 840.627 541.343 854.009 535.813 863.52C532.827 868.828 533.933 869.823 547.868 874.689C568.438 881.878 582.041 884.421 599.956 884.532C611.569 884.643 612.453 884.532 616.545 881.546C625.614 875.353 625.724 877.896 617.319 894.375C607.477 913.839 596.417 929.322 582.815 942.482C571.092 953.873 560.254 958.297 540.126 959.845C537.804 960.066 535.592 960.73 535.371 961.393C535.15 962.057 536.809 964.711 539.02 967.144C544.55 973.226 552.181 985.392 556.162 994.018C559.259 1001.1 559.369 1001.21 564.678 1001.98C572.64 1003.09 585.69 1007.62 593.431 1011.82C603.274 1017.24 620.637 1030.29 629.927 1039.25L638 1046.99L638 1071.43L638 1095.87L633.023 1087.03C620.195 1064.58 599.956 1044.78 578.833 1034.16C570.65 1030.07 556.052 1025.32 554.946 1026.42C554.503 1026.86 550.633 1034.16 546.43 1042.46C537.583 1060.04 527.408 1073.31 527.408 1067.45C527.408 1066.79 529.51 1061.92 532.053 1056.72C540.016 1040.02 542.006 1027.2 537.03 1022.55C534.707 1020.45 533.27 1020.12 523.869 1020.12C515.686 1020.12 512.036 1020.67 508.055 1022.33C501.64 1025.09 500.866 1025.09 500.866 1022.44C500.866 1019.79 507.502 1014.37 518.229 1008.06C522.542 1005.52 526.413 1002.64 526.745 1001.65C527.629 999.547 518.34 987.714 511.483 982.184C508.829 979.973 501.419 974.332 495.116 969.577C473.771 953.652 460.5 937.948 454.307 921.138C452.206 915.608 451.764 912.18 451.764 900.125C451.764 883.094 452.98 877.675 460.5 861.418C467.91 845.161 484.056 827.577 488.812 830.563C489.365 830.895 489.807 832.996 489.807 835.319C489.807 838.636 490.692 840.627 494.231 844.608C498.654 849.585 512.589 859.206 519.446 861.971C523.759 863.63 521.215 865.953 542.006 842.065C560.696 820.61 568.327 813.864 590.003 799.708C600.288 792.962 611.347 786.769 613.117 786.769C613.559 786.769 613.67 787.433 613.449 788.096ZM470.122 877.896C469.679 889.951 472.444 898.356 481.513 912.843C485.162 918.594 494.231 928.326 495.89 928.326C496.885 928.326 497.88 925.893 498.544 921.912C499.982 914.613 502.636 905.434 505.511 898.688C506.506 896.144 507.17 893.269 506.838 892.384C506.506 891.499 502.636 888.845 498.323 886.412C493.899 884.09 486.6 879.113 482.066 875.463C477.531 871.703 472.997 868.828 472.112 868.939C470.785 869.16 470.343 871.15 470.122 877.896ZM521.879 904.107C521.879 910.189 525.196 919.811 528.846 924.013C536.256 932.75 550.411 936.399 565.009 933.413C579.497 930.428 592.326 922.686 599.403 912.622C601.394 909.857 601.505 909.415 599.846 908.862C598.85 908.42 596.086 908.641 593.874 909.415C582.483 912.733 561.802 909.968 535.703 901.342C529.62 899.351 523.98 897.914 523.206 898.245C522.432 898.467 521.879 900.789 521.879 904.107Z" fill="white"/>
<path d="M293.839 802.252C304.787 809.993 305.23 810.989 300.032 818.398C297.82 821.716 294.502 825.587 292.844 827.135C291.074 828.573 289.636 830.453 289.636 831.337C289.636 832.222 291.959 834.545 294.834 836.425C301.58 840.738 306.225 845.051 306.225 847.041C306.225 849.143 296.493 861.861 292.844 864.515C290.853 865.953 289.083 866.395 287.535 865.842C284.439 864.847 270.725 855.668 268.956 853.456C267.076 851.023 269.177 847.373 276.918 839.189C283.443 832.222 284.439 829.347 280.457 828.13C275.591 826.582 265.306 818.841 265.306 816.629C265.306 813.2 280.347 796.722 283.443 796.722C284.881 796.722 289.526 799.266 293.839 802.252Z" fill="white"/>
<path d="M203.375 803.026C209.347 807.56 216.646 814.749 216.646 816.186C216.646 818.066 205.919 831.89 202.822 833.881C200.278 835.54 199.836 835.429 193.753 832.222C190.215 830.342 185.127 826.914 182.473 824.591L177.718 820.499L182.805 813.643C188.887 805.68 194.97 800.04 197.624 800.04C198.619 800.04 201.274 801.367 203.375 803.026Z" fill="white"/>
<path d="M638 806.454C638 811.763 638 811.763 627.715 820.721C622.185 825.697 616.324 830.674 614.776 832.001C611.347 834.655 612.453 837.199 618.204 840.074C622.407 842.175 632.581 842.618 635.899 840.959C637.889 839.853 638 840.185 638 849.143C638 859.538 637.668 859.981 627.494 864.736C620.416 868.054 604.269 867.501 594.537 863.741C585.58 860.312 583.921 860.202 578.059 863.077C572.972 865.51 570.981 865.842 569.986 864.183C567.553 860.202 597.523 830.895 625.061 810.104C631.696 805.238 637.336 801.146 637.558 801.146C637.779 801.146 638 803.579 638 806.454Z" fill="white"/>
<path d="M94.9951 820.389C94.9951 822.822 86.1478 833.107 77.7428 840.406C73.5403 844.055 67.3472 849.474 63.8082 852.571C60.3799 855.557 57.6151 858.875 57.7257 859.759C58.0575 862.192 67.126 866.395 72.3238 866.395C80.0652 866.395 87.1431 863.298 93.7786 856.773C97.0963 853.566 100.304 850.912 100.746 850.912C103.732 850.912 94.7739 869.381 88.0278 877.122C77.964 888.403 63.9189 893.6 50.4267 890.836C46.6666 890.061 40.584 888.513 37.0451 887.297C32.8426 885.97 29.0825 885.417 26.76 885.859L23.1105 886.523L23.1105 881.214C23.1105 876.238 23.5529 875.242 28.4189 870.155C43.7912 853.787 87.9172 818.84 93.3362 818.84C94.221 818.84 94.9951 819.504 94.9951 820.389Z" fill="white"/>
<path d="M139.232 849.917C142.66 851.133 145.867 856.22 145.867 860.423C145.867 866.174 141.112 873.473 130.163 884.311C120.542 894.043 116.008 897.139 116.008 894.043C116.008 893.49 117.777 890.614 119.989 887.739C128.062 877.122 128.947 870.929 122.754 867.943C119.436 866.284 116.229 867.39 110.036 872.477C107.381 874.579 104.948 876.348 104.506 876.348C102.958 876.348 103.953 871.593 106.165 868.496C109.593 863.519 124.302 852.129 129.389 850.359C134.587 848.479 135.361 848.479 139.232 849.917Z" fill="white"/>
<path d="M149.959 895.37C149.627 896.808 148.079 901.342 146.531 905.434C143.324 913.839 142.55 928.216 144.983 935.072C145.646 937.173 150.512 944.141 155.71 950.555C160.908 956.969 167.543 965.596 170.419 969.577C173.405 973.669 176.169 976.986 176.722 976.986C177.275 976.986 180.151 975.106 183.137 972.784C205.808 954.979 227.705 947.459 259.998 946.353C293.618 945.136 306.999 950.002 330.445 972.01C337.633 978.756 341.725 984.507 344.379 991.916C345.596 994.902 346.923 997.778 347.476 998.109C348.029 998.552 351.015 997.778 354.111 996.672C365.834 992.138 374.46 988.93 382.533 986.276C393.371 982.627 405.426 978.203 409.628 976.434C411.398 975.659 416.706 973.89 421.24 972.563C431.194 969.687 433.184 968.139 431.525 964.49C430.862 963.163 425.443 955.532 419.582 947.68C413.61 939.717 407.859 931.312 406.753 928.879C401.666 917.82 405.979 908.198 420.466 898.245C425.111 895.038 427.323 894.153 428.208 895.038C428.982 895.812 428.871 896.808 427.655 898.135C424.779 901.452 423.12 907.756 423.895 912.069C424.337 914.281 426.881 918.926 429.535 922.465C432.189 926.004 437.497 932.86 441.147 937.726C448.004 946.684 449.994 950.113 453.201 959.292L454.971 964.268L463.818 964.932C479.08 966.149 488.148 970.683 492.683 979.42C496.222 986.166 493.236 999.437 485.384 1012.15C480.739 1019.79 478.748 1019.67 478.748 1012.04C478.748 1000.98 471.228 993.354 456.298 989.483C448.778 987.493 448.335 987.714 442.585 996.893C437.055 1005.41 420.466 1022 418.807 1020.34C418.033 1019.56 418.476 1018.13 420.466 1015.47C423.563 1011.27 432.3 993.686 432.3 991.474C432.3 990.368 431.083 990.147 426.991 990.7C417.812 992.027 385.851 1002.09 370.479 1008.39C362.295 1011.82 355.107 1014.59 354.554 1014.59C354.001 1014.59 352.121 1015.58 350.351 1016.91C347.365 1019.01 347.144 1019.56 347.144 1027.08C347.144 1051.3 336.859 1078.73 319.275 1101.4C303.129 1122.19 297.157 1128.61 282.448 1141.55C274.485 1148.51 267.85 1154.71 267.629 1155.37C266.854 1157.47 301.47 1152.94 305.23 1150.39C306.667 1149.4 315.847 1140.99 325.468 1131.7C335.2 1122.41 343.273 1115.34 343.494 1116C343.826 1116.77 340.619 1120.76 336.527 1124.85C327.68 1133.92 311.755 1151.5 311.755 1152.27C311.755 1153.49 320.16 1156.14 332.767 1158.91C348.913 1162.45 368.156 1162.89 381.649 1160.13C391.602 1158.02 392.708 1157.69 407.748 1150.39C415.932 1146.41 419.581 1145.2 420.356 1145.97C423.231 1148.85 408.08 1162.45 395.141 1168.75C382.423 1174.95 373.244 1177.16 359.42 1177.16C352.342 1177.16 342.389 1176.49 337.191 1175.61C331.993 1174.72 323.809 1173.51 318.943 1172.84C314.077 1172.29 307.995 1171.41 305.562 1171.19C299.59 1170.3 296.604 1172.73 290.521 1183.02C283.996 1194.08 281.231 1200.05 279.02 1207.68C276.476 1216.31 272.052 1239.42 272.716 1240.42C273.49 1241.85 284.217 1241.41 291.738 1239.64C299.59 1237.76 308.769 1233.56 312.529 1230.02C313.856 1228.8 315.404 1228.14 316.068 1228.47C318.28 1229.91 312.861 1238.31 304.677 1246.28C294.392 1256.34 288.309 1259.66 275.812 1261.87C270.836 1262.76 270.504 1263.64 271.61 1271.6L272.605 1278.9L261.325 1278.9L249.934 1278.9L249.602 1270.94L249.27 1262.87L239.87 1262.98C228.811 1263.2 210.453 1266.74 203.375 1270.16C200.61 1271.49 196.629 1274.04 194.417 1275.69C192.205 1277.46 189.219 1278.9 187.781 1278.9C185.459 1278.9 185.901 1278.24 191.21 1272.71C207.024 1256.56 225.604 1245.95 241.529 1244.07C252.035 1242.74 252.809 1242.19 254.8 1235C259.445 1218.3 264.753 1207.57 278.245 1187.44C286.65 1175.06 288.641 1171.3 287.535 1170.19C285.655 1168.31 259.666 1168.42 252.588 1170.41C245.842 1172.29 233.677 1178.15 226.931 1182.8C221.623 1186.56 218.747 1186 220.959 1181.8C223.171 1177.6 235.999 1166.98 250.929 1156.92C276.365 1139.67 294.392 1123.19 308.437 1104.17C325.136 1081.61 331.329 1060.81 328.454 1036.93C327.68 1030.4 326.463 1024.43 325.91 1023.66C325.136 1022.77 321.266 1022.33 314.077 1022.33C303.018 1022.33 282.337 1020.01 274.928 1017.91C268.071 1015.91 255.353 1008.95 253.362 1006.07C247.722 998.109 248.275 998.331 244.957 1002.75C243.298 1004.97 241.64 1008.73 241.308 1011.05C240.865 1014.7 241.197 1015.91 244.183 1019.34C246.063 1021.44 250.045 1024.65 252.92 1026.53C255.795 1028.3 263.205 1032.84 269.509 1036.71C282.558 1044.78 288.641 1050.86 292.622 1059.71C295.166 1065.24 295.498 1067.56 295.608 1078.18C295.719 1092.22 294.502 1096.31 286.872 1106.93C279.794 1116.77 259.113 1136.24 255.685 1136.24C254.689 1136.24 254.468 1134.91 254.911 1131.26C255.574 1126.51 255.574 1126.29 249.602 1120.42C246.284 1117.22 238.875 1111.02 233.124 1106.82C220.185 1097.09 210.453 1086.8 206.14 1078.18C203.264 1072.43 202.822 1070.33 202.822 1062.69C202.822 1053.18 202.269 1054.84 212.554 1035.05C214.102 1031.95 216.204 1027.42 217.309 1024.87C220.738 1016.36 257.012 983.18 266.191 980.194C270.615 978.756 271.721 979.53 275.481 986.94C279.683 995.124 282.006 996.119 299.037 997.335C317.616 998.662 318.833 997.999 311.755 990.7C299.7 978.314 287.977 971.899 268.513 966.923C255.574 963.715 254.026 963.494 240.423 964.158C225.272 964.821 218.747 966.038 206.14 970.793C199.394 973.337 183.468 982.848 183.468 984.396C183.468 984.617 185.348 988.709 187.56 993.354C194.528 1007.84 193.09 1018.02 180.151 1042.79C170.419 1061.48 159.802 1076.52 156.152 1076.52C153.609 1076.52 154.604 1073.42 159.581 1066.34C169.755 1051.64 170.64 1049.31 170.419 1039.25C170.308 1034.38 169.534 1027.42 168.539 1023.99C166.437 1015.58 161.571 1005.52 159.912 1005.96C159.138 1006.18 154.604 1011.71 149.738 1018.13C139.011 1032.39 134.698 1037.04 133.37 1035.71C132.043 1034.38 136.578 1025.76 146.531 1010.61C151.065 1003.75 154.715 997.778 154.715 997.335C154.715 996.893 150.512 990.257 145.425 982.627C128.726 957.744 125.187 948.896 126.403 936.178C127.177 928.547 126.514 926.667 123.528 927.773C121.537 928.547 115.786 937.284 111.363 946.021C101.078 966.812 93.0045 974.332 72.3238 982.516C59.4952 987.603 50.3161 987.935 35.2756 983.954L23.6635 980.857L23.3318 967.254C23.2212 959.845 23.3318 953.762 23.553 953.762C23.8847 953.762 27.4237 954.979 31.6261 956.306C56.841 965.043 61.5964 965.817 72.7662 963.494C84.8207 961.061 93.1151 956.638 102.184 948.011C111.584 939.164 111.252 937.616 100.414 939.275C84.3783 941.929 76.7475 940.823 51.3114 932.086C43.3488 929.432 33.9486 926.557 30.299 925.783L23.6635 924.234L23.3318 911.737L23 899.241L33.838 899.904C44.5654 900.678 56.7304 903.443 62.7024 906.54C82.4983 916.825 85.2631 917.488 108.156 917.488L126.293 917.378L130.163 913.728C132.264 911.737 135.693 907.314 137.905 903.996C143.102 895.812 145.867 892.937 148.411 892.937C150.07 892.937 150.402 893.49 149.959 895.37ZM225.493 1047.65C225.493 1057.94 233.013 1068.34 248.496 1079.39C255.021 1084.15 262.984 1090.12 266.08 1092.89C273.269 1098.86 275.812 1098.64 274.706 1092C272.937 1081.61 264.2 1068.78 253.583 1060.93C247.39 1056.39 227.705 1044.45 226.267 1044.45C225.825 1044.45 225.493 1045.89 225.493 1047.65Z" fill="white"/>
<path d="M399.786 914.06C400.67 915.608 394.588 921.912 374.35 940.602C369.373 945.247 369.152 945.689 370.811 947.459C374.018 950.666 380.985 951.882 387.289 950.334C391.602 949.339 394.477 947.68 398.79 943.477C401.997 940.381 404.983 938.28 405.315 938.611C407.416 940.713 397.795 957.633 391.27 963.052C381.759 971.125 368.931 972.895 354.996 968.25C347.697 965.817 344.269 966.038 339.624 969.024C335.532 971.678 334.205 969.135 337.08 964.49C341.946 956.527 373.575 928.658 390.717 917.157C397.684 912.512 398.569 912.18 399.786 914.06Z" fill="white"/>
<path d="M612.122 938.169C616.545 940.823 625.835 951.329 625.724 953.652C625.724 954.647 624.065 957.633 621.964 960.398C612.564 973.005 612.343 973.337 613.559 975.77C614.223 976.986 616.988 979.53 619.752 981.521C622.407 983.511 624.95 985.944 625.282 987.05C626.609 991.032 615.771 1006.85 611.79 1006.85C609.467 1006.85 599.956 999.768 597.745 996.34C594.427 991.363 595.422 987.382 601.505 980.968C604.491 977.761 607.034 974.553 607.034 973.89C607.034 973.226 603.274 969.356 598.74 965.264C592.768 959.955 590.446 957.08 590.446 955.2C590.446 952.214 600.178 941.265 605.597 938.058C608.693 936.289 609.025 936.289 612.122 938.169Z" fill="white"/>
</g>
</g>
</svg>
